<svg viewBox="0 0 62 63" xmlns="http://www.w3.org/2000/svg">
              <g transform="translate(-350 -270)">
                <path
                  d="M370.273 331.994C369.662 332.229 369.072 332.443 368.46 332.679C366.538 333.235 364.768 333.193 363.348 331.566C363.283 331.416 363.239 331.266 363.173 331.116C364.244 329.746 365.686 328.761 367.259 328.076C372.196 325.936 374.97 321.869 377.483 317.459C376.325 317.223 375.167 317.052 374.053 316.752C368.788 315.382 364.004 313.391 362.343 307.633C362.19 307.119 361.928 307.098 361.469 307.183C360.311 307.419 359.132 307.355 357.974 307.226C357.581 307.183 357.166 307.076 357.013 306.648C356.816 306.135 357.253 305.942 357.537 305.685C357.799 305.45 358.105 305.257 358.433 305.021C357.734 304.807 357.078 304.829 356.532 304.443C356.161 304.187 355.789 303.93 355.811 303.437C355.833 302.945 356.292 302.881 356.663 302.709C356.991 302.56 357.428 302.538 357.69 302.196C356.903 301.96 356.204 301.832 355.527 301.554C354.981 301.318 354.042 301.211 354.173 300.44C354.304 299.584 355.221 299.82 355.877 299.734C356.03 299.734 356.183 299.691 356.619 299.627C355.92 299.434 355.505 299.327 355.09 299.199C354.631 299.049 354.151 298.92 353.736 298.728C353.102 298.45 352.49 298.064 352.316 297.358C352.119 296.609 353.19 296.887 353.364 296.416C352.884 296.18 352.425 296.009 352.032 295.731C351.573 295.41 351.114 294.917 351.354 294.361C351.617 293.783 352.206 294.232 352.643 294.254C352.796 294.254 352.927 294.275 353.342 294.339C352.512 293.719 351.879 293.269 351.267 292.798C350.896 292.498 350.524 292.177 350.459 291.664C350.371 291.043 350.502 290.657 351.267 290.893C351.748 291.043 352.25 291.193 353.058 291.428C352.01 290.508 351.223 289.844 350.481 289.116C350.218 288.859 349.847 288.431 350.153 288.089C350.502 287.661 350.896 288.11 351.18 288.303C352.381 289.073 353.561 289.865 354.741 290.657C354.216 289.908 353.561 289.287 352.949 288.624C352.512 288.153 351.682 287.532 352.185 286.997C352.622 286.526 353.277 287.339 353.758 287.703C355.09 288.731 356.401 289.801 357.712 290.872C357.712 290.55 357.581 290.358 357.45 290.187C356.816 289.352 356.292 288.474 355.855 287.554C355.702 287.211 355.702 286.826 356.051 286.59C356.51 286.291 356.663 286.761 356.882 287.018C357.013 287.168 357.078 287.361 357.187 287.532C358.979 290.443 361.251 292.884 364.484 294.339C366.166 295.11 367.98 295.517 369.749 296.052C374.206 297.401 378.859 298.193 383.01 300.419C384.736 301.339 386.462 302.26 388.275 303.245C388.384 302.024 388.471 300.911 388.581 299.777C388.777 297.872 388.93 295.945 389.214 294.04C389.433 292.541 390.023 292.22 391.333 292.691C391.115 292.306 390.918 292.028 390.743 291.706C390.241 290.765 389.695 289.823 389.695 288.731C389.695 287.211 390.263 286.869 391.617 287.554C391.879 287.682 392.076 288.003 392.557 287.81C391.945 287.04 391.552 286.183 391.246 285.284C391.006 284.557 390.481 283.786 391.18 283.08C391.901 282.373 392.579 283.122 393.365 283.379C393.212 283.058 393.147 282.844 393.016 282.651C392.491 281.859 391.923 281.089 391.574 280.211C391.29 279.483 391.53 278.841 392.12 278.434C392.753 278.006 393.103 278.627 393.518 278.991C393.955 279.376 394.261 279.954 395.156 280.318C394.173 278.927 393.693 277.642 393.409 276.272C393.234 275.48 393.365 274.688 394.13 274.324C394.938 273.939 395.266 274.774 395.593 275.245C396.249 276.187 396.795 277.193 397.538 278.434C397.407 276.979 396.817 275.972 396.489 274.881C396.096 273.554 395.899 272.183 396.489 270.856C396.664 270.471 396.948 270.064 397.472 270.107C397.909 270.15 398.193 270.471 398.302 270.878C398.717 272.633 399.722 274.132 400.334 275.801C400.487 276.229 400.64 276.7 401.164 277C400.968 275.951 400.771 274.945 400.596 273.96C400.443 273.104 400.181 272.248 400.531 271.391C400.749 270.878 400.793 270.107 401.557 270.086C402.191 270.086 402.388 270.728 402.65 271.199C403.305 272.291 403.655 273.511 404.441 274.517C404.747 275.33 405.075 276.144 405.381 276.936C405.381 277.086 405.315 277.257 405.381 277.385C406.123 279.976 405.883 282.502 405.031 285.028C404.092 287.746 402.999 290.422 401.841 293.076C400.793 295.474 399.788 297.872 399.023 300.376C398.827 301.018 398.696 301.661 398.958 302.346C399.132 302.795 399.329 303.009 399.832 302.731C400.88 302.174 402.016 301.703 402.715 300.654C403.109 300.055 403.677 299.606 404.288 299.199C406.101 298 408.439 298.064 409.553 299.477C410.711 300.911 411.214 302.688 412.087 304.486C411.126 304.229 410.405 303.994 409.684 303.844C409.007 303.694 408.33 303.844 407.98 304.443C406.276 307.333 403.72 309.56 401.798 312.278C398.674 316.688 394.545 319.813 389.236 321.376C387.663 321.847 386.134 322.532 384.67 323.239C379.602 325.679 375.429 329.532 370.383 332.015"
                  fill="#820000" />
              </g>
            </svg>