  
            <svg viewBox="0 0 217 310" xmlns="http://www.w3.org/2000/svg">
              <g transform="translate(-146 -279)">
                <path
                  d="M163.17 544.42C167.468 544.235 179.17 544.235 180.885 543.726C180.885 543.726 170.562 540.131 169.368 536.004C168.163 531.888 167.99 518.835 167.99 518.835C167.99 518.835 170.388 522.801 172.809 524.165C175.208 525.541 179.506 526.558 181.232 530.339C182.958 534.119 188.114 539.599 190.698 540.986C193.281 542.351 197.394 542.524 197.394 542.524C197.394 542.524 187.952 537.715 187.419 532.223C186.909 526.743 191.045 515.575 191.045 515.575C191.045 515.575 199.653 526.385 202.052 531.703C204.473 537.021 204.635 542.697 204.635 542.697C204.635 542.697 223.3 545.773 231.421 567.947C231.085 566.664 228.479 556.79 227.517 552.316C226.474 547.507 221.492 543.033 219.778 538.582C218.051 534.119 216.337 528.974 211.691 523.818C207.057 518.662 197.244 509.055 192.783 514.373C192.783 514.373 190.199 509.216 193.814 506.13C197.417 503.043 200.186 501.32 202.77 502.002C205.272 502.684 212.444 512.685 212.896 513.309C212.792 512.812 211.737 507.771 212.235 500.118C212.745 492.048 209.13 478.672 203.117 477.978C203.117 477.978 200.789 490.094 187.454 486.383C175.752 483.135 177.664 463.897 185.565 460.301C193.478 456.706 202.075 459.954 203.639 474.209C203.639 474.209 207.937 474.556 209.988 480.048C209.988 480.048 209.826 475.065 211.714 473.527C213.614 471.978 216.198 472.672 216.881 474.545C217.576 476.429 216.881 478.14 215.676 478.14C214.471 478.14 213.626 474.891 212.583 477.111C211.563 479.342 210.695 479.689 212.421 483.978C214.147 488.268 215.352 496.002 214.495 502.338C213.637 508.696 215.352 515.563 216.893 521.39C218.445 527.24 222.755 539.426 226.011 543.021C226.011 543.021 223.775 523.968 224.285 513.494C224.817 503.031 225.675 496.326 224.817 483.458C223.96 470.579 223.091 438.647 208.818 428C208.818 428 211.401 440.197 185.936 448.775C185.936 448.775 183.7 440.879 190.234 432.474C196.769 424.057 205.377 423.375 205.377 423.375C205.377 423.375 203.824 417.525 199.514 418.901C195.216 420.288 190.744 430.242 186.608 433.144C182.483 436.069 172.508 438.3 170.956 443.954C170.956 443.954 170.608 432.277 173.365 427.988C176.111 423.699 179.552 419.745 179.552 419.745L175.08 421.988L176.285 419.225L168.198 422.658C168.198 422.658 170.087 419.571 167.851 420.589C165.765 421.56 164.421 422.52 164.259 422.635C164.421 422.277 166.391 418.207 164.41 418.542C162.347 418.878 159.59 421.444 159.59 421.444C159.59 421.444 160.447 418.358 159.242 418.542C158.095 418.704 154.608 420.739 154.284 420.924C154.481 420.577 156.752 416.831 154.782 416.993C152.778 417.155 146.429 419.271 146.035 419.386C146.382 419.121 150.843 415.56 151.179 414.068C151.515 412.531 153.925 408.924 155.303 408.057C156.67 407.201 159.092 405.825 159.092 405.825L157.887 403.767L161.49 403.952L163.564 402.912L161.675 401.548L168.72 401.894L166.321 399.501C166.321 399.501 172.323 400.692 173.192 401.039C174.049 401.386 170.446 398.808 170.446 398.808C170.446 398.808 176.308 399.316 177.837 401.039L175.787 397.802C176.262 397.929 183.908 400.241 185.229 402.056C186.55 403.883 194.034 409.421 194.509 409.768C194.196 409.294 188.299 400.484 187.987 399.154L191.242 401.733L186.26 392.102L189.354 394.345L187.801 388.148L190.732 389.351L190.895 382.668H192.099C192.099 382.668 197.093 375.801 200.534 377.003C200.534 377.003 200.534 379.558 201.553 382.322C202.585 385.061 203.627 390.565 202.758 395.709C201.901 400.866 201.553 409.953 201.553 411.328C201.553 412.704 206.025 421.629 209.976 425.225C209.976 425.225 207.926 416.82 207.23 414.068C206.535 411.328 204.994 406.172 204.994 406.172L207.393 410.114L205.852 399.998L208.435 403.085L208.25 396.565L209.293 398.287L211.876 393.131L213.243 393.987C213.243 393.987 219.615 386.958 223.056 387.628C223.056 387.628 220.299 390.553 220.994 395.524C221.666 400.507 220.647 405.478 218.92 408.75C217.194 412.022 211.529 420.08 212.734 427.294C212.734 427.294 220.125 435.352 222.524 446.347C224.945 457.33 227.691 473.805 227.691 473.805C227.691 473.805 228.896 452.359 235.268 439.827C235.268 439.827 227.876 435.699 227.343 427.641C226.833 419.571 227.343 413.722 222.871 415.444C222.871 415.444 222.524 409.964 227.691 410.473C232.858 410.982 237.318 413.906 239.902 417.34C239.902 417.34 245.069 397.432 245.243 389.351C245.243 389.351 236.982 395.362 225.292 384.541C213.591 373.732 212.05 370.067 207.74 368.922C201.206 367.211 200.117 373.639 198.808 373.211C197.255 372.703 199.48 359.824 207.578 359.639C215.653 359.477 221.504 362.217 221.504 362.217C221.504 362.217 220.809 355.696 223.056 355.361C225.292 355.014 232.337 358.448 234.573 360.841C236.809 363.246 242.833 373.72 243.181 380.241C243.528 386.761 245.602 386.761 245.602 386.761C245.602 386.761 247.328 365.315 244.212 357.916C241.119 350.54 239.914 343.846 238.72 343.152C237.515 342.482 235.951 352.783 226.671 349.511C217.368 346.239 218.758 332.007 218.758 332.007C218.758 332.007 211.181 339.037 205.504 340.066C199.827 341.106 192.945 339.904 193.64 333.383C193.64 333.383 189.597 330.181 190.199 325.66C191.231 317.764 199.989 315.359 199.989 315.359C199.989 315.359 188.821 316.388 188.473 310.203C188.126 304.018 193.64 304.191 193.64 304.191C193.64 304.191 189.504 301.451 193.803 296.989C198.101 292.515 206.871 296.804 206.871 296.804C206.871 296.804 200.337 291.139 205.852 287.197C211.355 283.254 213.081 286.168 213.081 286.168C213.081 286.168 213.811 282.433 218.839 282.167C222.894 281.948 225.64 282.318 227.274 287.555C227.598 288.63 228.479 295.59 228.872 298.711C229.023 297.162 229.533 294.63 229.753 292.341C230.101 288.746 231.989 279.3 238.871 278.954C245.753 278.607 246.263 282.202 246.263 282.202C246.263 282.202 252.797 280.838 254.002 286.491C255.207 292.156 251.928 294.908 251.592 295.775C251.592 295.775 261.567 292.688 267.592 296.284C273.616 299.879 272.933 304.527 271.38 305.891C269.839 307.255 267.777 308.296 268.287 309.833C268.797 311.382 272.076 313.776 270.523 318.597C268.982 323.406 252.449 322.712 252.449 323.221C252.449 323.73 256.388 328.111 255.89 334.724C255.207 343.985 247.815 343.823 245.579 344.517C245.579 344.517 249.008 354.286 249.53 360.298C250.04 366.309 249.692 374.194 249.692 374.194C249.692 374.194 251.418 370.945 251.244 365.604C251.059 360.286 249.518 353.257 254.5 348.621C259.493 343.985 263.803 343.811 264.985 345.534C266.19 347.257 272.91 341.592 280.301 343.65C285.862 345.187 288.91 351.222 287.519 353.419C286.662 354.794 286.662 351.187 280.823 354.459C274.96 357.708 271.357 365.604 267.916 371.963C264.475 378.321 253.979 385.697 250.711 384.495C247.456 383.293 258.451 382.09 259.829 371.454C261.22 360.806 250.387 374.194 250.04 376.599C249.692 378.992 248.313 396.507 247.294 402.334C246.251 408.184 243.32 418.485 243.158 418.993C242.995 419.502 240.748 422.936 240.922 424.15C241.084 425.34 245.741 413.34 254.512 412.299C263.282 411.271 266.213 418.496 265.866 419.675C265.53 420.878 261.741 418.647 258.821 421.225C255.902 423.803 254.176 430.485 249.704 434.786C245.231 439.087 239.728 440.636 238.523 440.289C237.318 439.942 230.784 467.238 229.915 472.036C229.058 476.857 229.753 486.117 229.915 487.146C230.101 488.187 235.256 475.308 237.84 471.365C240.423 467.423 245.915 461.064 245.753 460.209C245.591 459.353 246.263 454.706 245.405 454.544C244.548 454.382 240.759 454.891 241.455 451.619C242.15 448.37 245.058 447.838 246.784 449.896C248.51 451.954 247.989 458.313 247.989 458.313C247.989 458.313 261.405 446.463 263.826 444.416C266.225 442.347 275.18 437.364 276.385 426.728C277.579 416.08 264.684 391.709 279.131 389.131C279.131 389.131 278.969 379.847 284.97 380.194C284.97 380.194 290.138 372.125 285.828 365.778C285.828 365.778 292.71 362.159 298.051 374.021C298.051 374.021 301.306 376.946 300.634 381.05C299.939 385.177 299.777 390.148 299.777 390.148C299.777 390.148 304.921 389.293 303.728 396.669C302.523 404.045 296.498 414.704 291.516 421.387C286.673 427.872 276.513 436.3 275.887 436.809C276.038 436.613 277.046 435.295 282.92 426.89C289.616 417.282 289.454 410.577 286.013 406.461C286.013 406.461 278.784 411.964 279.641 417.618C280.498 423.283 278.957 434.243 268.496 442.139C269.191 441.757 282.491 434.67 292.2 437.352C292.2 437.352 294.783 432.89 298.387 432.543C298.387 432.543 293.405 425.167 301.828 419.664C310.262 414.184 315.082 415.375 319.206 421.051C319.206 421.051 317.155 410.75 324.895 407.987C332.622 405.247 336.758 410.392 336.758 410.392C336.758 410.392 344.498 405.756 349.827 416.751C354.554 426.497 343.988 433.953 341.555 435.503C343.606 434.312 351.797 430.138 358.945 434.589C367.206 439.746 360.312 449.179 360.312 449.179C360.312 449.179 363.406 456.729 357.219 462.22C351.032 467.712 341.404 461.712 335.727 452.613C335.727 452.613 333.144 453.122 341.057 460.856C348.97 468.567 344.312 476.637 342.598 477.504C340.871 478.36 336.063 478.545 335.901 479.053C335.739 479.562 331.603 485.065 324.721 481.793C317.839 478.545 316.46 472.695 316.46 467.55C316.46 467.55 309.069 476.14 301.665 472.36C294.274 468.579 296.336 464.301 296.336 464.301C296.336 464.301 289.454 458.463 298.572 451.769C298.572 451.769 292.038 449.873 291.343 441.468C291.343 441.468 280.684 437.526 271.554 443.861C271.554 443.861 279.293 445.064 280.51 454.162C280.51 454.162 278.274 459.665 258.161 454.509C258.161 454.509 238.535 468.752 232.51 491.412C226.486 514.084 229.069 542.906 232.51 556.293C232.51 556.293 231.827 522.13 241.466 509.436C241.466 509.436 243.019 503.771 240.261 503.262C237.515 502.731 236.484 503.077 235.963 500.511C235.453 497.933 239.914 496.222 241.987 498.788C244.061 501.366 244.224 505.147 244.224 505.147C244.224 505.147 248.522 496.21 255.241 493.644C255.241 493.644 251.105 485.077 251.963 476.487C252.82 467.897 255.056 463.608 253.515 460.012C253.515 460.012 257.304 459.319 260.212 461.03C263.143 462.752 263.653 464.625 264.162 465.319C264.695 466.012 265.889 463.943 265.889 463.943C265.889 463.943 266.422 468.567 266.422 469.099C266.422 469.631 268.148 467.55 268.148 468.244V474.764L269.503 472.903C269.283 473.747 265.634 487.181 262.459 489.019C262.459 489.019 265.738 480.603 259.551 473.053C259.551 473.053 254.384 484.73 256.968 491.921C256.968 491.921 265.043 487.47 271.415 486.603C271.415 486.603 271.149 478.66 274.161 471.839C277.37 464.59 282.074 456.532 282.236 453.954C282.271 454.266 282.584 455.295 284.831 457.931C287.763 461.365 290.346 472.695 289.13 476.128C288.006 479.342 283.997 482.406 283.499 482.776C284.391 482.279 298.815 474.152 305.801 476.984C313.031 479.909 318.893 482.302 323.192 488.487C327.478 494.661 329.378 497.586 327.826 509.586C327.826 509.586 326.1 508.211 322.844 505.471C319.565 502.707 314.919 500.835 314.919 500.835C314.919 500.835 299.452 493.62 295.49 490.36C291.539 487.088 280.348 486.418 280.348 486.418C280.348 486.418 291.354 488.487 294.957 496.719C298.584 504.962 293.579 514.731 293.579 514.731C293.579 514.731 283.256 512.153 280.348 505.471C277.417 498.765 274.833 489.343 274.833 489.343C274.833 489.343 263.653 490.88 258.323 495.863C258.323 495.863 268.461 495.678 272.944 501.02C277.417 506.338 281.715 514.396 275.343 525.552C275.343 525.552 273.107 521.957 268.125 517.829C263.131 513.714 255.728 505.644 254.709 499.124C254.709 499.124 244.548 506.5 239.728 527.275C234.92 548.039 236.797 572.433 236.797 572.433C236.797 572.433 242.474 561.091 243.679 557.658C244.884 554.235 243.864 549.946 245.231 543.761C246.599 537.587 251.071 534.847 251.071 528.651C251.071 522.454 250.561 518.188 250.561 518.188C250.561 518.188 255.728 515.957 259.679 523.691C263.63 531.414 260.374 536.732 259.517 537.934C258.659 539.137 251.592 548.744 251.592 548.744C251.592 548.744 267.256 532.431 284.797 534.662L285.654 532.269C285.654 532.269 276.884 529.865 279.282 522.662C281.692 515.448 288.4 516.13 288.4 514.939C288.4 513.748 292.026 516.13 294.772 520.095C297.518 524.038 298.213 531.772 287.89 533.136L287.542 534.674C287.542 534.674 295.467 536.397 297.355 537.946L298.375 536.743C298.375 536.743 295.467 524.72 304.573 523.518C313.691 522.327 316.599 530.223 316.09 535.194C315.58 540.177 300.947 537.957 300.947 537.957L299.221 539.495C299.221 539.495 304.736 544.316 305.593 546.362L310.413 544.64C310.413 544.64 310.922 537.772 320.04 538.813C329.158 539.83 326.575 549.969 323.667 551.345C320.735 552.709 312.649 555.808 310.413 547.056L305.94 548.073C305.94 548.073 308.686 554.27 308.872 556.143C308.872 556.143 315.916 552.709 318.847 558.212C321.755 563.692 318.152 568.328 314.873 570.051C311.617 571.774 304.597 569.831 303.704 565.242C302.152 557.345 307.145 556.652 307.145 556.652C307.145 556.652 307.829 547.715 296.985 541.726C296.985 541.726 294.749 542.062 295.444 546.351C295.444 546.351 301.793 547.9 301.631 554.941C301.468 561.97 293.891 563.01 290.96 561.461C288.052 559.923 284.078 554.085 287.183 549.784C290.277 545.495 294.054 546.189 294.054 546.189C294.054 546.189 293.544 541.391 295.258 540.697C295.258 540.697 288.724 536.061 279.259 537.957C279.259 537.957 287.519 540.189 286.141 547.056C284.762 553.923 275.204 557.126 270.488 552.212C263.259 544.651 273.929 538.824 273.929 538.824C273.929 538.824 264.417 539.056 251.047 554.605C242.787 564.236 242.439 572.803 242.439 572.803C242.439 572.803 249.507 561.311 257.582 561.473C265.669 561.658 266.19 563.369 271.346 563.877C276.513 564.386 282.873 569.034 284.6 575.045C284.6 575.045 279.432 570.063 271.693 574.19C263.954 578.306 258.787 578.479 252.252 583.104C245.718 587.74 245.37 585.508 244.687 585.867C243.992 586.202 238.662 589.636 234.364 588.768C230.066 587.913 221.805 588.26 218.017 585C214.228 581.728 200.128 576.236 198.414 577.785L196.687 579.323C196.687 579.323 193.93 575.728 196.687 574.19C199.433 572.641 199.781 570.409 202.017 570.224C204.253 570.063 208.041 571.08 209.246 569.901C210.451 568.698 210.787 566.282 213.892 566.467C216.986 566.629 219.731 565.773 222.477 567.669C225.153 569.485 230.888 574.201 231.248 574.502C231.016 574.086 227.239 567.357 225.594 563.033C223.867 558.559 216.638 553.241 214.228 551.704C211.83 550.154 205.458 547.068 205.458 547.068C205.458 547.068 203.732 556.328 202.202 558.906C200.65 561.484 194.463 566.629 191.879 568.19C189.296 569.727 187.06 573.346 187.06 573.346C187.06 573.346 186.017 569.057 185.507 565.276C184.997 561.496 183.955 552.582 199.619 545.53C199.619 545.53 195.83 541.067 184.997 544.501C184.997 544.501 182.924 549.31 182.761 554.964C182.576 560.432 174.072 567.346 173.342 569.97C173.412 569.38 173.377 567.773 171.917 565.265C170.017 561.993 169.148 558.051 171.222 554.455C173.203 550.987 177.745 546.559 178.092 546.235C177.722 546.385 171.72 549.021 165.719 556.178C159.532 563.554 151.793 568.016 151.793 569.057C151.793 569.057 150.762 566.825 150.588 563.392C150.426 559.958 152.14 556.686 153.867 553.6C155.593 550.513 158.849 544.501 163.147 544.339M214.321 329.163C219.94 330.551 226.335 322.377 225.791 322.03C225.791 322.03 220.994 322.527 219.384 316.862C219.384 316.862 213.348 316.365 211.355 319.938C209.385 323.499 211.088 328.377 214.321 329.163ZM210.243 304.677C206.419 307.637 208.528 316.25 218.631 315.013C218.631 315.013 217.773 308.492 219.743 307.498C219.743 307.498 214.066 301.717 210.243 304.677ZM223.949 294.214C220.739 292.862 217.53 295.567 216.789 298.029C216.059 300.492 216.429 304.434 220.855 305.174C220.855 305.174 221.852 301.729 226.416 301.475C226.416 301.475 227.146 295.567 223.949 294.214ZM227.517 322.527C227.517 322.527 227.633 326.955 230.483 329.048C232.174 330.285 235.534 331.013 239.844 329.048C242.937 327.649 243.412 321.533 242.312 320.065C241.2 318.573 235.662 317.602 235.662 317.602C235.418 318.076 227.517 322.527 227.517 322.527ZM241.084 296.677C237.759 290.769 228.977 300.076 230.344 301.116C231.004 301.613 235.14 300.157 237.504 306.4C237.504 306.4 244.409 302.584 241.072 296.677M252.797 308.492C251.685 303.821 247.491 304.064 243.911 304.18C240.342 304.295 238.732 309.59 238.732 309.59C238.975 310.585 236.519 315.614 236.519 315.614C236.519 315.614 241.455 316.608 245.162 316.469C248.846 316.354 253.909 313.151 252.809 308.481M336.214 450.867C340.118 456.694 350.14 453.376 347.776 444.613C345.297 435.433 336.075 438.786 336.075 438.786C339.133 441.977 336.202 450.867 336.202 450.867M332.298 425.572C328 423.074 321.315 427.387 323.528 434.185C323.528 434.185 330.363 432.936 334.256 436.266C334.256 436.266 336.619 428.08 332.298 425.572ZM322.705 463.238C324.918 467.55 334.534 466.44 336.341 462.96C338.16 459.492 332.31 453.237 332.31 453.237C329.68 454.625 324.512 454.081 324.512 454.081C324.512 454.081 320.469 458.937 322.705 463.249M322.554 454.07C322.554 454.07 318.105 450.729 317.132 445.861C317.132 445.861 309.752 447.804 310.169 453.781C310.598 459.758 318.395 463.099 322.566 454.058M307.794 438.636C307.794 439.711 308.767 445.307 316.843 443.503C316.843 443.503 316.843 438.092 321.57 435.295C321.57 435.295 315.603 426.543 311.409 430.578C307.238 434.601 307.783 438.092 307.783 438.636"
                  fill="#A4874D" />
              </g>
            </svg>