<svg width="16" height="16" viewBox="0 0 16 16" fill="none" xmlns="http://www.w3.org/2000/svg">
<g clip-path="url(#clip0_202_248)">
<mask id="mask0_202_248" style="mask-type:luminance" maskUnits="userSpaceOnUse" x="0" y="0" width="16" height="16">
<path d="M16 0H0V16H16V0Z" fill="white"/>
</mask>
<g mask="url(#mask0_202_248)">
<path d="M13.3081 9.68123C13.0475 10.4936 11.8969 10.8547 10.7029 10.4485C10.3121 10.3131 9.96478 10.1326 9.70426 9.88433C10.2036 9.41043 10.5075 8.73341 10.5075 7.9887C10.5075 7.76303 10.4641 7.53736 10.4207 7.33426C10.7897 7.28913 11.2239 7.33426 11.6364 7.49223C12.8087 7.87587 13.5686 8.86882 13.3298 9.68123M8.03262 13.7207C7.20765 13.7207 6.53466 12.6826 6.53466 11.3963C6.53466 10.9675 6.59978 10.5839 6.73004 10.2454C7.09911 10.4711 7.5333 10.629 8.01091 10.629C8.48852 10.629 8.94442 10.4711 9.31349 10.2454C9.44375 10.5839 9.50887 10.9901 9.53059 11.3963C9.53059 12.6826 8.8793 13.7433 8.05433 13.7433M2.69205 9.72636C2.43153 8.91395 3.19137 7.921 4.36369 7.5148C4.77618 7.3794 5.18866 7.31169 5.57943 7.35683C5.53601 7.55993 5.49259 7.76303 5.49259 7.9887C5.49259 8.75598 5.81824 9.43299 6.31756 9.9069C6.03533 10.1326 5.70969 10.3357 5.31892 10.4711C4.1466 10.8773 2.97428 10.5388 2.71376 9.72636M4.68934 3.22707C5.36234 2.73059 6.49124 3.15937 7.22936 4.19745C7.51159 4.58109 7.68527 5.00986 7.7721 5.41607C6.8603 5.50633 6.10046 6.09308 5.7314 6.90549C5.40575 6.70238 5.08011 6.40901 4.81959 6.04794C4.08147 5.00986 4.03805 3.74611 4.68934 3.24964M11.2674 3.2045C11.9404 3.70097 11.8969 4.96473 11.1588 6.00281C10.8983 6.36388 10.5944 6.67982 10.2687 6.88292C9.89965 6.07051 9.1181 5.48377 8.2063 5.41607C8.29314 5.00986 8.46681 4.60365 8.72733 4.19745C9.44375 3.15937 10.5944 2.70803 11.2456 3.2045M15.5224 6.97319C14.8929 6.22848 13.8291 6.11564 12.8087 6.25105C13.6988 5.732 14.5021 4.98729 14.5889 3.99435C14.7626 1.76021 12.114 1.94075 12.114 1.94075C12.114 1.94075 11.441 -0.722156 9.46546 0.157957C8.57536 0.541596 8.16288 1.57968 7.96749 2.61776C7.7721 1.57968 7.33791 0.541596 6.44782 0.157957C4.47224 -0.699589 3.82095 1.96332 3.82095 1.96332C3.82095 1.96332 1.19409 1.80535 1.36776 4.03948C1.4546 5.03243 2.25786 5.75457 3.16966 6.27361C2.14931 6.16078 1.08554 6.27361 0.455958 7.01832C-0.933458 8.71085 1.30263 10.1777 1.30263 10.1777C1.30263 10.1777 0.34741 12.7278 2.45324 13.2468C3.38676 13.4725 4.29856 12.8857 5.0584 12.1636C4.62421 13.134 4.40711 14.2172 4.90643 15.0747C6.03533 16.9704 8.05433 15.2327 8.05433 15.2327C8.05433 15.2327 10.095 16.9704 11.2022 15.0522C11.7015 14.1946 11.441 13.1114 11.0068 12.141C11.7667 12.8632 12.6785 13.4273 13.612 13.2017C15.6961 12.6826 14.7192 10.1326 14.7192 10.1326C14.7192 10.1326 16.9336 8.64315 15.5224 6.95062" fill="#A5874D"/>
</g>
</g>
<defs>
<clipPath id="clip0_202_248">
<rect width="16" height="16" fill="white"/>
</clipPath>
</defs>
</svg>
