<svg width="51" height="62" viewBox="0 0 51 62" fill="none" xmlns="http://www.w3.org/2000/svg">
<g clip-path="url(#clip0_1_22)">
<path d="M2.60884 55.0994L2.00602 55.6524L1.41319 55.0761L2.02798 54.5289L2.60884 55.0994ZM4.28955 55.2902C4.28955 55.592 4.20771 56.0029 4.04602 56.5208C3.82845 56.77 3.53103 56.9823 3.15577 57.1614C2.68669 57.3834 2.18567 57.4924 1.65272 57.4924C1.00598 57.4924 0.544889 57.325 0.267433 56.9881C0.0897809 56.77 0.00195312 56.5052 0.00195312 56.1918C0.00195312 55.7381 0.267433 55.1364 0.800388 54.3868C0.81436 54.3829 0.830329 54.379 0.844301 54.379C0.964067 54.379 1.03992 54.4277 1.06986 54.525C0.790407 54.9631 0.650681 55.337 0.650681 55.6427C0.650681 55.9484 0.776434 56.1664 1.02994 56.3183C1.23753 56.4429 1.50501 56.5052 1.83236 56.5052C2.2715 56.5052 2.69667 56.4274 3.10187 56.2716C3.46317 56.1333 3.70469 55.9815 3.82047 55.8179C3.71068 55.2571 3.48113 54.8112 3.13182 54.4763L3.54101 53.4794C3.72266 53.6858 3.89033 53.9623 4.04203 54.305C4.2097 54.6827 4.29354 55.0099 4.29354 55.2883" fill="black"/>
<path d="M5.40742 51.3532C5.47329 51.6647 5.50523 52.1126 5.50523 52.6947C5.50523 53.6547 5.41541 54.7061 5.23576 55.8491L4.8565 56.404L4.85251 55.0313C4.85251 53.754 4.74073 52.7804 4.51917 52.1087L5.40742 51.3551V51.3532Z" fill="black"/>
<path d="M7.78672 56.2054H7.56515C7.3855 56.2054 7.21184 56.1431 7.04417 56.0185C6.8765 56.918 6.45133 57.6696 5.77067 58.2771C5.67086 58.2771 5.48922 58.2284 5.22773 58.1311C4.92632 58.0201 4.69079 57.8955 4.52112 57.7631C5.69082 57.2179 6.36151 56.6941 6.53317 56.1956C6.43137 55.9094 6.17787 55.6271 5.77266 55.3467L6.28167 54.3634C6.59904 54.7139 6.81263 54.9281 6.92241 55.0099C7.10006 55.1403 7.30965 55.2046 7.55118 55.2046H7.78672V56.2054Z" fill="black"/>
<path d="M9.59314 55.2007H8.12402V56.2054H9.59314V55.2007Z" fill="black"/>
<path d="M10.3217 57.3055L9.80275 57.8118L9.27978 57.362L8.80072 57.8332L8.2478 57.36L8.76678 56.846L9.29176 57.3055L9.77281 56.8265L10.3237 57.3075L10.3217 57.3055ZM11.1521 54.636C11.0643 55.1539 10.9445 55.5044 10.7928 55.6894C10.5114 56.034 10.1161 56.2054 9.60913 56.2054H9.3696V55.2046H9.75884C10.2998 55.2046 10.5712 55.1247 10.5712 54.967C10.5712 54.856 10.4295 54.6146 10.1481 54.2408L10.7249 53.4716C11.0084 53.8416 11.1521 54.231 11.1521 54.636Z" fill="black"/>
<path d="M12.1661 51.3532C12.232 51.6647 12.2639 52.1126 12.2639 52.6947C12.2639 53.6547 12.1741 54.7061 11.9944 55.8491L11.6152 56.404L11.6112 55.0313C11.6112 53.754 11.4994 52.7804 11.2778 52.1087L12.1661 51.3551V51.3532Z" fill="black"/>
<path d="M15.7531 55.1617L15.1503 55.7147L14.5575 55.1384L15.1723 54.5912L15.7531 55.1617ZM17.3799 55.2902C17.3799 55.592 17.2981 56.0029 17.1364 56.5208C16.9188 56.77 16.6214 56.9823 16.2441 57.1614C15.7751 57.3834 15.2741 57.4924 14.7431 57.4924C14.0964 57.4924 13.6333 57.325 13.3558 56.9881C13.1782 56.77 13.0903 56.5052 13.0903 56.1918C13.0903 55.7381 13.3558 55.1364 13.8868 54.3868C13.9027 54.3829 13.9167 54.379 13.9327 54.379C14.0524 54.379 14.1283 54.4277 14.1582 54.525C13.8788 54.9631 13.7391 55.337 13.7391 55.6427C13.7391 55.9484 13.8648 56.1664 14.1163 56.3183C14.3239 56.4429 14.5894 56.5052 14.9168 56.5052C15.3559 56.5052 15.7791 56.4274 16.1863 56.2716C16.5476 56.1333 16.7891 55.9815 16.9049 55.8179C16.7951 55.2571 16.5655 54.8112 16.2162 54.4763L16.6234 53.4794C16.805 53.6858 16.9727 53.9623 17.1244 54.305C17.2921 54.6827 17.3759 55.0099 17.3759 55.2883" fill="black"/>
<path d="M19.9968 56.2054H18.9309C18.4538 56.2054 18.1424 56.0126 17.9987 55.6271C17.9009 55.3662 17.835 54.784 17.8031 53.8825C17.7871 53.4366 17.7692 53.127 17.7472 52.9537C17.7053 52.6169 17.6255 52.3189 17.5077 52.058L18.1943 51.3551C18.3081 51.5343 18.38 51.8088 18.4079 52.1788C18.4179 52.3112 18.4239 52.5974 18.4239 53.0316V54.1103C18.4239 54.4335 18.4478 54.6652 18.4938 54.8132C18.5776 55.0741 18.7493 55.2046 19.0028 55.2046H19.9968V56.2054Z" fill="black"/>
<path d="M26.2425 54.5309C26.2425 54.6243 26.1986 54.7996 26.1108 55.0605C26.0709 55.1812 26.001 55.3564 25.9052 55.5882C25.8174 55.7556 25.6896 55.8997 25.5199 56.0165C25.3383 56.1431 25.1547 56.2073 24.973 56.2073C24.7754 56.2073 24.6017 56.1295 24.452 55.9737C24.3103 55.8315 24.2225 55.6583 24.1885 55.4616C24.0508 55.9581 23.7394 56.2073 23.2604 56.2073C22.9071 56.2073 22.6296 55.9581 22.428 55.4616C22.1705 55.9581 21.8611 56.2073 21.4998 56.2073H20.3341V55.2065H21.5717C21.8252 55.2065 22.0108 55.0858 22.1306 54.8424C22.2124 54.675 22.2543 54.4958 22.2543 54.3031H22.5877C22.5877 54.9047 22.8172 55.2046 23.2763 55.2046C23.5817 55.2046 23.8013 55.0897 23.937 54.858C24.0289 54.7003 24.0748 54.5134 24.0748 54.3031H24.4121C24.4121 54.9047 24.6117 55.2046 25.0149 55.2046C25.3123 55.2046 25.5499 55.1306 25.7255 54.9807C25.7255 54.9145 25.5658 54.6555 25.2465 54.2038L25.8233 53.4639C25.9132 53.5573 26.003 53.7111 26.0928 53.9273C26.1926 54.1668 26.2425 54.3673 26.2425 54.5289" fill="black"/>
<path d="M28.6279 56.2054H28.1029C27.6258 56.2054 27.3144 56.0126 27.1707 55.6271C27.0729 55.3662 27.009 54.784 26.9751 53.8825C26.9611 53.4366 26.9412 53.127 26.9192 52.9537C26.8773 52.6169 26.7975 52.3189 26.6797 52.058L27.3643 51.3551C27.4781 51.5343 27.55 51.8088 27.5779 52.1788C27.5879 52.3112 27.5919 52.5974 27.5919 53.0316V54.1103C27.5919 54.4335 27.6159 54.6652 27.6638 54.8132C27.7476 55.0741 27.9193 55.2046 28.1728 55.2046H28.6279V56.2054Z" fill="black"/>
<path d="M33.3765 55.1948C33.2089 55.1754 33.0472 55.113 32.8895 55.004C32.7857 54.9281 32.604 54.7626 32.3465 54.5056C32.0751 54.233 31.8395 54.0207 31.6419 53.8727C31.1329 53.4892 30.6838 53.2263 30.2946 53.0822C30.5042 52.9751 30.8235 52.8349 31.2527 52.6616C31.7976 52.4416 32.2487 52.2897 32.608 52.2041L33.0571 51.2617C32.0711 51.4681 31.0331 51.8711 29.9453 52.4689C29.8814 52.8135 29.8395 53.2282 29.8255 53.717C30.5121 54.0207 31.0032 54.4179 31.3006 54.9047C31.087 55.1053 30.6638 55.2046 30.0351 55.2046H28.9272V56.2054H29.9233C30.2526 56.2054 30.558 56.145 30.8415 56.0224C31.1529 55.888 31.3924 55.6952 31.5561 55.448C31.612 55.2026 31.6379 55.0176 31.6379 54.8911C31.6379 54.8521 31.6359 54.819 31.6319 54.7918C31.7617 54.893 31.9353 55.078 32.1549 55.3525C32.3745 55.6251 32.5521 55.816 32.6879 55.9211C32.9074 56.0886 33.137 56.1762 33.3765 56.1976V55.1948Z" fill="black"/>
<path d="M37.2789 54.6399L36.8438 55.5609C36.3527 55.668 35.7 55.8218 34.8896 56.0224C34.4026 56.1431 34.0872 56.2054 33.9455 56.2054H33.7059V55.2046H34.2648C34.3327 55.2046 34.4724 55.1929 34.682 55.1715C34.3826 54.9923 34.2309 54.7373 34.2309 54.4024C34.2309 54.0675 34.4165 53.7364 34.7858 53.4171C35.1252 53.1212 35.4306 52.9751 35.7 52.9751C36.1272 52.9751 36.4765 53.201 36.748 53.6547C36.7939 53.7306 36.7959 53.7676 36.7599 53.7676C36.74 53.7676 36.706 53.7598 36.6581 53.7423C36.5144 53.6897 36.3348 53.6644 36.1192 53.6644C35.6621 53.6644 35.2988 53.7657 35.0253 53.9682C35.0772 54.4433 35.3587 54.7859 35.8677 54.9982L37.2809 54.6399H37.2789Z" fill="black"/>
<path d="M39.8958 55.0001L39.7301 54.1901C39.3448 54.27 38.9855 54.4588 38.6522 54.7528C38.7999 54.932 39.1053 55.0196 39.5704 55.0196C39.6882 55.0196 39.796 55.0118 39.8958 55.0001ZM41.5825 56.2054H40.818C40.3828 56.2054 40.0874 55.851 39.9297 55.1423C39.8498 55.4304 39.7381 55.6719 39.5924 55.8666C38.8059 55.8666 38.2849 55.6952 38.0294 55.3526C38.1312 54.9787 38.221 54.6866 38.2989 54.4744C38.6023 54.2096 39.0414 53.972 39.6103 53.7657C39.5904 53.6722 39.5484 53.5417 39.4826 53.3704L39.9277 52.7201C40.0614 52.907 40.1592 53.2302 40.2271 53.6858C40.3169 54.2914 40.3748 54.636 40.3988 54.7217C40.4946 55.0449 40.6523 55.2046 40.8718 55.2046H41.5805V56.2054H41.5825Z" fill="black"/>
<path d="M43.345 52.391L42.7422 52.944L42.1494 52.3676L42.7642 51.8185L43.345 52.389V52.391ZM44.0696 54.636C43.9818 55.1539 43.862 55.5044 43.7103 55.6894C43.4269 56.034 43.0336 56.2054 42.5266 56.2054H41.9019V55.2046H42.6763C43.2173 55.2046 43.4887 55.1247 43.4887 54.967C43.4887 54.856 43.347 54.6146 43.0656 54.2408L43.6424 53.4716C43.9279 53.8416 44.0696 54.231 44.0696 54.636Z" fill="black"/>
<path d="M46.3631 56.2054H45.7423C45.2652 56.2054 44.9538 56.0126 44.8101 55.6271C44.7123 55.3662 44.6464 54.784 44.6145 53.8825C44.5985 53.4366 44.5806 53.127 44.5586 52.9537C44.5167 52.6169 44.4369 52.3189 44.3191 52.058L45.0038 51.3551C45.1195 51.5343 45.1894 51.8088 45.2173 52.1788C45.2273 52.3112 45.2333 52.5974 45.2333 53.0316V54.1103C45.2333 54.4335 45.2573 54.6652 45.3032 54.8132C45.389 55.0741 45.5587 55.2046 45.8142 55.2046H46.3631V56.2054Z" fill="black"/>
<path d="M48.6287 52.4221L48.0238 52.9751L47.433 52.3988L48.0458 51.8516L48.6267 52.4221H48.6287ZM51 54.8502L50.497 55.6466C50.1437 55.5784 49.9081 55.5434 49.7924 55.5434C49.5948 55.5434 49.1975 55.6544 48.6007 55.8744C48.0039 56.0944 47.5548 56.2054 47.2514 56.2054H46.6665V55.2046H47.5627C48.2294 55.2046 48.7903 55.1462 49.2454 55.0293C48.9979 54.8969 48.6965 54.712 48.3392 54.4764C48.1117 54.3245 47.962 54.2485 47.8861 54.2485C47.8103 54.2485 47.6745 54.416 47.4789 54.7489C47.443 54.7548 47.3971 54.7412 47.3372 54.7119C47.2773 54.6827 47.2394 54.6516 47.2234 54.6204C47.6107 53.8007 47.922 53.3918 48.1596 53.3918C48.3153 53.3918 48.5668 53.5242 48.9161 53.7871C49.451 54.1862 49.7824 54.4257 49.9081 54.5036C50.3273 54.7548 50.6886 54.8697 51 54.8502Z" fill="black"/>
<path d="M16.7273 58.9352C16.6394 59.2137 16.5895 59.3539 16.5795 59.3539C16.334 59.3539 16.1783 59.3656 16.1125 59.3928C16.0087 59.4337 15.8789 59.5427 15.7212 59.718C15.5735 59.8815 15.4997 59.9867 15.4997 60.0315C15.4997 60.1113 15.6194 60.1853 15.859 60.2515C16.0705 60.3099 16.1983 60.3508 16.2462 60.3761C16.3739 60.4384 16.4378 60.5221 16.4378 60.6312C16.4378 60.6701 16.4179 60.7694 16.3739 60.9291C16.332 61.0888 16.3021 61.1764 16.2861 61.1919C16.2242 61.2406 16.0127 61.3263 15.6534 61.449C15.1803 61.6086 14.7771 61.6885 14.4437 61.6885C14.1703 61.6885 13.9407 61.6262 13.7571 61.5035C13.5455 61.3613 13.4397 61.1627 13.4397 60.9077C13.4397 60.7422 13.4936 60.5436 13.6014 60.308C13.6273 60.2495 13.6772 60.1561 13.7491 60.0315C13.8349 59.8796 13.8888 59.8056 13.9068 59.8056C13.9287 59.8056 13.9607 59.8153 14.0006 59.8348C14.0425 59.8543 14.0625 59.8757 14.0625 59.8932C14.0625 59.8523 14.0585 59.8329 14.0485 59.8329C14.0265 59.8329 13.9786 59.9322 13.9068 60.1327C13.803 60.4228 13.7511 60.6078 13.7511 60.6857C13.7511 60.894 13.8329 61.0498 13.9966 61.1511C14.1343 61.2406 14.314 61.2835 14.5395 61.2835C14.9328 61.2835 15.3799 61.1881 15.8789 60.9972C16.0885 60.9155 16.1963 60.8532 16.1963 60.8103C16.1963 60.7675 16.0985 60.7149 15.9049 60.6545C15.6434 60.5767 15.4937 60.528 15.4557 60.5085C15.312 60.4384 15.2422 60.3625 15.2422 60.2826C15.2422 60.1833 15.2941 60.0198 15.3959 59.7978C15.6853 59.1728 16.0406 58.8613 16.4618 58.8613C16.6534 58.8613 16.7432 58.8846 16.7273 58.9352Z" fill="black"/>
<path d="M18.3041 60.5981H18.2163C18.0785 60.5981 17.9767 60.5591 17.9109 60.4832C17.8889 60.7032 17.7931 60.9758 17.6194 61.3029C17.5476 61.4373 17.4598 61.5697 17.354 61.7001C17.2102 61.8773 17.1005 61.9649 17.0206 61.9649C16.9128 61.9649 16.7452 61.9241 16.5156 61.8403C16.4797 61.8267 16.4617 61.815 16.4597 61.8072C16.4597 61.7975 16.4777 61.7839 16.5156 61.7683C16.7771 61.6515 17.0346 61.4762 17.2841 61.2406C17.5596 60.9817 17.6973 60.7597 17.6973 60.5767C17.6973 60.4481 17.5735 60.2418 17.326 59.9594C17.326 59.9964 17.3779 59.8543 17.4797 59.533C17.4897 59.5018 17.5037 59.498 17.5216 59.5233C17.5775 59.6128 17.6594 59.7394 17.7691 59.9069C17.9029 60.1113 18.0326 60.2145 18.1624 60.2145H18.3061V60.5981H18.3041Z" fill="black"/>
<path d="M21.6415 60.2125H18.3041V60.5981H21.6415V60.2125Z" fill="black"/>
<path d="M23.3303 60.2125H21.4879V60.5981H23.3303V60.2125Z" fill="black"/>
<path d="M24.3263 58.8574L24.0408 59.1553L23.7115 58.8788L24.0169 58.5711L24.3243 58.8574H24.3263ZM24.6596 60.5981H24.444C24.2245 60.5981 24.0528 60.5007 23.933 60.3041C23.7873 60.5007 23.5917 60.5981 23.3442 60.5981H23.1765V60.2145H23.3083C23.6656 60.2145 23.8452 60.0256 23.8452 59.6459C23.8692 59.6323 23.9011 59.6245 23.945 59.6245C23.9849 59.6245 24.0129 59.6323 24.0308 59.6459C24.0308 59.8621 24.0568 60.0062 24.1067 60.0762C24.1726 60.1678 24.3183 60.2145 24.5438 60.2145H24.6596V60.5981Z" fill="black"/>
<path d="M26.6078 60.086C26.6078 59.9146 26.4441 59.7238 26.1167 59.5116C26.1267 59.5836 26.1327 59.644 26.1327 59.6946C26.1327 59.8387 26.0588 59.975 25.9091 60.1055C26.2585 60.1814 26.4501 60.2164 26.49 60.2164C26.5379 60.2164 26.5678 60.2125 26.5778 60.2048C26.5998 60.1892 26.6078 60.1502 26.6078 60.086ZM25.9071 59.6089C25.9071 59.5116 25.8732 59.4298 25.8073 59.3617C25.7554 59.3091 25.7155 59.2838 25.6816 59.2838C25.5698 59.2838 25.468 59.3266 25.3802 59.4103C25.2923 59.496 25.2464 59.5914 25.2464 59.7005C25.2464 59.7667 25.2923 59.8348 25.3822 59.901C25.464 59.9614 25.5279 59.9925 25.5778 59.9925C25.6217 59.9925 25.6796 59.9614 25.7554 59.901C25.8572 59.8192 25.9071 59.7219 25.9071 59.6089ZM26.8473 59.9731C26.8473 60.0315 26.8094 60.1366 26.7355 60.2924C26.6577 60.4559 26.5958 60.5416 26.5519 60.5494C26.0748 60.491 25.7295 60.4267 25.5139 60.3566C25.1207 60.5182 24.8273 60.6 24.6376 60.6H24.5159V60.2164H24.6875C24.9031 60.2164 25.0548 60.1892 25.1466 60.1366C25.0488 60.0879 25.0009 59.9614 25.0009 59.753C25.0009 59.5155 25.1247 59.2974 25.3742 59.1007C25.3442 59.0813 25.2824 59.0501 25.1866 59.0112L25.3043 58.5711C25.5938 58.7581 25.8812 58.9508 26.1686 59.1533C26.3543 59.2857 26.49 59.3928 26.5778 59.4746C26.7555 59.6459 26.8433 59.8114 26.8433 59.975" fill="black"/>
<path d="M28.6359 60.0607C28.6359 59.827 28.4422 59.6031 28.057 59.3909C27.9053 59.6985 27.8294 59.901 27.8294 59.9925C27.8294 60.0587 27.8674 60.1171 27.9432 60.1658C28.0091 60.2106 28.079 60.2301 28.1508 60.2301C28.2107 60.2301 28.3025 60.2145 28.4223 60.1814C28.564 60.1425 28.6359 60.1016 28.6359 60.0607ZM28.8834 59.9283C28.8834 59.9808 28.8594 60.0665 28.8075 60.1872C28.7576 60.306 28.7117 60.3858 28.6738 60.4267C28.566 60.5397 28.3664 60.5961 28.075 60.5961C27.9253 60.5961 27.8035 60.5572 27.7097 60.4813C27.6119 60.3995 27.564 60.2865 27.564 60.1425C27.564 60.0198 27.6179 59.8348 27.7256 59.5914C27.7516 59.533 27.8514 59.3091 28.0231 58.9216C28.5979 59.1728 28.8854 59.5077 28.8854 59.9244" fill="black"/>
<path d="M29.562 58.8846L29.2746 59.1786L28.9472 58.9021L29.2526 58.5926L29.564 58.8827L29.562 58.8846ZM29.6358 60.2982C29.6358 60.5689 29.55 60.8629 29.3783 61.1803C29.3125 61.3029 29.2227 61.4334 29.1109 61.5697C28.9672 61.741 28.8554 61.8287 28.7775 61.8287C28.6378 61.8287 28.4721 61.7936 28.2805 61.7235C28.2446 61.7099 28.2266 61.7001 28.2246 61.6904C28.2306 61.6807 28.2486 61.669 28.2805 61.6554C28.51 61.5541 28.7456 61.3906 28.9911 61.1647C29.2746 60.9038 29.4143 60.6837 29.4143 60.5046C29.4143 60.3586 29.2985 60.1541 29.069 59.8893C29.069 59.8737 29.1189 59.7297 29.2227 59.4571C29.2346 59.4279 29.2486 59.424 29.2646 59.4454C29.3424 59.5486 29.4183 59.679 29.4961 59.8387C29.5899 60.0354 29.6378 60.1872 29.6378 60.2963" fill="black"/>
<path d="M30.9293 60.2028C30.9293 60.0918 30.8854 59.975 30.7956 59.8523C30.6998 59.718 30.596 59.6518 30.4902 59.6518C30.4183 59.6518 30.3584 59.7102 30.3145 59.8231C30.2786 59.9127 30.2606 60.0003 30.2606 60.084C30.2606 60.1288 30.3265 60.1619 30.4563 60.1833C30.6678 60.2203 30.8275 60.2262 30.9313 60.2028M31.4084 60.5981H31.1449C31.1229 60.7792 31.0531 60.9817 30.9353 61.2075C30.8575 61.3594 30.7217 61.5463 30.5281 61.7683C30.3944 61.9221 30.3065 62 30.2646 62C30.083 62 29.8954 61.9494 29.7057 61.8462C29.6598 61.8228 29.6359 61.8053 29.6359 61.7975C29.6359 61.7858 29.6578 61.7722 29.7017 61.7566C29.9612 61.6593 30.1968 61.5191 30.4083 61.3399C30.7078 61.0829 30.8794 60.8376 30.9193 60.6H30.57C30.2926 60.6 30.1049 60.5494 30.0071 60.4481C29.9892 60.4306 29.9832 60.3138 29.9932 60.0996C30.0011 59.8874 30.081 59.6907 30.2307 59.5077C30.3604 59.348 30.4702 59.2701 30.562 59.2701C30.6619 59.2701 30.7756 59.3363 30.9014 59.4688C31.075 59.6537 31.1689 59.903 31.1808 60.2184H31.4104V60.602L31.4084 60.5981Z" fill="black"/>
<path d="M33.1031 60.2125H31.2607V60.5981H33.1031V60.2125Z" fill="black"/>
<path d="M34.7938 60.2125H32.9514V60.5981H34.7938V60.2125Z" fill="black"/>
<path d="M37.0654 59.8465C37.0534 59.864 37.0015 59.9594 36.9097 60.1288C36.8298 60.1191 36.752 60.1133 36.6821 60.1133C36.5065 60.1133 36.3488 60.1425 36.2071 60.2028C36.1312 60.2359 35.9935 60.2924 35.7939 60.3761C35.4006 60.526 35.1012 60.6 34.8916 60.6H34.6461V60.2165H34.8537C35.0074 60.2165 35.229 60.1853 35.5244 60.121C35.8438 60.0509 36.0833 59.9731 36.243 59.8913C36.1292 59.8348 35.9256 59.7083 35.6302 59.5155C35.3867 59.3558 35.2549 59.2779 35.231 59.2779C35.1791 59.2779 35.0892 59.3675 34.9595 59.5447L34.8437 59.4707C35.0174 59.0832 35.1631 58.8885 35.2849 58.8885C35.3807 58.8885 35.5284 58.9645 35.73 59.1183C36.0374 59.3519 36.233 59.4941 36.3168 59.5447C36.5723 59.6966 36.8119 59.7745 37.0354 59.7745C37.0674 59.7745 37.0873 59.7764 37.0953 59.7822C37.1033 59.7881 37.0933 59.8095 37.0674 59.8484" fill="black"/>
<path d="M12.763 14.1049C12.763 14.1049 12.751 15.7327 13.4636 16.5232C14.6852 17.7986 16.7092 15.61 15.4197 14.4593C14.6872 13.8304 12.763 14.1029 12.763 14.1029" fill="black"/>
<path d="M12.3917 18.4275C11.4835 18.0867 9.76685 19.0077 9.76685 19.0077C9.76685 19.0077 10.3257 20.5459 11.2719 21.0464C12.8708 21.8271 14.0065 19.0642 12.3917 18.4275Z" fill="black"/>
<path d="M15.4816 10.199L12.4515 9.32862L12.715 12.3797C12.715 12.3797 13.739 12.555 14.6652 12.8899C15.4237 13.1625 16.0625 13.6512 16.0625 13.6512C16.0625 13.6512 15.7052 12.9444 15.5874 12.1656C15.4437 11.2134 15.4796 10.199 15.4796 10.199" fill="black"/>
<path d="M10.8488 23.1765C9.87668 23.1648 8.61316 24.5784 8.61316 24.5784C8.61316 24.5784 9.69105 25.809 10.757 25.957C12.5295 26.1458 12.5874 23.2291 10.8488 23.1765Z" fill="black"/>
<path d="M9.12411 17.3683C9.12411 17.3683 9.16603 17.3605 9.24188 17.3488C10.226 17.1365 11.4615 17.0431 12.6951 17.3975C12.5753 17.2845 12.0823 16.7939 11.743 16.1903C11.6711 16.0637 11.6033 15.9352 11.5394 15.8086C11.4516 15.6412 11.3737 15.4718 11.3018 15.3063C11.0763 14.7942 10.9366 14.3931 10.9366 14.3931L7.79272 14.5839L9.12012 17.3683H9.12411Z" fill="black"/>
<path d="M17.1523 10.4988C17.1523 10.4988 16.4737 12.2707 16.9507 13.1002C17.835 14.5683 20.4658 13.106 19.4399 11.6749C18.7931 10.8318 17.1523 10.5008 17.1523 10.5008" fill="black"/>
<path d="M16.1283 31.1616C16.1283 31.1616 16.1703 34.497 16.4717 37.0458C16.9647 41.2146 17.815 45.4242 17.815 45.4242C17.815 45.4242 22.4919 47.2857 28.4462 46.4601C35.4764 45.1925 38.4625 42.3575 38.4625 42.3575C38.4625 42.3575 32.5461 40.3228 27.6537 37.8714C21.5198 34.7949 16.1263 31.1597 16.1263 31.1597" fill="black"/>
<path d="M10.9266 22.0511H10.9226C10.9226 22.0511 10.1761 21.7395 9.56729 21.2255C8.82275 20.5946 8.17202 19.808 8.17202 19.808L5.28967 21.0444L7.52729 23.2096C7.52729 23.2096 8.42552 22.6936 9.3537 22.3587C10.1142 22.0842 10.9266 22.0511 10.9266 22.0511Z" fill="black"/>
<path d="M36.9576 12.6485C37.8758 12.2941 38.8958 12.0955 38.8958 12.0955L39.0894 9.0385L36.0793 9.97506C36.0793 9.97506 36.1392 10.9876 36.0174 11.9416C35.9176 12.7244 35.5763 13.4409 35.5763 13.4409V13.437C35.5763 13.437 36.2051 12.9366 36.9576 12.6465" fill="black"/>
<path d="M35.8776 14.5235C34.3985 15.5029 36.3228 17.8141 37.6821 16.751C38.4306 16.1416 38.4406 14.2353 38.4406 14.2353C38.4406 14.2353 36.7879 13.9608 35.8776 14.5235Z" fill="black"/>
<path d="M38.8717 18.5871C37.1312 19.0058 38.1112 21.7921 39.77 21.2547C40.6902 20.9373 41.3828 19.1693 41.3828 19.1693C41.3828 19.1693 39.9277 18.3671 38.8717 18.5871Z" fill="black"/>
<path d="M50.6846 20.4447C50.5808 19.8547 49.93 19.6542 49.7344 19.6055L49.6865 19.5958C49.6745 19.5938 48.5068 19.3952 47.2872 18.9045C46.409 18.5502 45.4868 18.1627 44.8859 17.9076C45.1873 17.3137 45.6305 16.4512 46.0556 15.6528C46.6605 14.5196 47.425 13.6259 47.4329 13.6181L47.4629 13.5792C47.5807 13.4195 47.9459 12.8568 47.6365 12.3369C47.5288 12.1558 47.2533 11.854 46.6106 11.8618C46.5147 11.8618 46.4509 11.8696 46.4509 11.8696L46.401 11.8774C46.401 11.8774 45.2193 12.0857 43.9019 12.0312C42.9857 11.9962 42.0096 11.9416 41.3349 11.9008C41.4108 11.2232 41.5165 10.2808 41.6303 9.41624C41.796 8.14867 42.1972 7.05439 42.1992 7.04271L42.2152 6.99598C42.2711 6.80516 42.4148 6.15483 41.9397 5.77125C41.8239 5.67778 41.6223 5.5668 41.3229 5.56875C41.0195 5.57264 40.7401 5.69726 40.6602 5.7362L40.6163 5.75956C40.6163 5.75956 39.5764 6.35343 38.3248 6.74675C37.4485 7.02324 36.5163 7.30168 35.8916 7.48471C35.7259 6.85968 35.4664 5.86665 35.2448 4.94956C34.9434 3.7073 34.9255 2.54488 34.9255 2.5332V2.48452C34.9055 2.28786 34.8057 1.62973 34.2248 1.43308C34.129 1.40192 34.0292 1.38635 33.9274 1.38635C33.4903 1.39219 33.145 1.70178 33.0172 1.83613L32.9833 1.87507C32.9833 1.87507 32.2288 2.78243 31.1948 3.58269C30.4742 4.13956 29.6937 4.7237 29.1727 5.11117C28.8115 4.57572 28.2725 3.77156 27.7795 3.00634C27.0808 1.9257 26.6776 0.829471 26.6736 0.819735L26.6537 0.773005C26.5718 0.59387 26.2605 0.00584163 25.6337 0.0019474C25.0289 0.00778874 24.7155 0.588029 24.6336 0.765216L24.6137 0.81C24.6097 0.819735 24.1965 1.91207 23.4879 2.98687C23.0068 3.71509 22.4799 4.48615 22.0986 5.04108C21.5836 4.6536 20.8291 4.0792 20.1345 3.53596C19.1105 2.73375 18.3639 1.82445 18.356 1.81666L18.322 1.77966C18.1903 1.63947 17.837 1.31625 17.3859 1.32209C17.294 1.32209 17.2022 1.33767 17.1144 1.36493C16.5335 1.55574 16.4257 2.21192 16.4078 2.40858L16.4038 2.45921C16.4038 2.47089 16.3758 3.62358 16.0605 4.86778C15.8289 5.78488 15.5594 6.77596 15.3858 7.39903C14.7231 7.19848 13.7989 6.91615 12.9506 6.64161C11.701 6.23855 10.673 5.64468 10.663 5.6369L10.6191 5.61353C10.5353 5.57264 10.2399 5.43829 9.92449 5.44218C9.70292 5.44413 9.50132 5.51228 9.34163 5.63884C8.86257 6.01658 8.9983 6.66887 9.0522 6.85968L9.06817 6.90641C9.07216 6.9181 9.46339 8.01432 9.6151 9.27995C9.72288 10.1815 9.82469 11.1453 9.88856 11.8073C9.23185 11.8385 8.22782 11.8832 7.28966 11.9105C5.97623 11.9533 4.80253 11.7333 4.79255 11.7294L4.74065 11.7216C4.74065 11.7216 4.64684 11.7099 4.51909 11.7119C3.94821 11.7177 3.67874 11.967 3.55099 12.1773C3.2356 12.6952 3.5949 13.2598 3.71067 13.4215L3.74261 13.4604C3.74261 13.4604 4.50711 14.3678 5.09596 15.5088C5.50316 16.2934 5.92633 17.1385 6.22574 17.7479C5.60296 18.0069 4.69674 18.3769 3.8504 18.7079C2.63279 19.1849 1.4531 19.3777 1.44312 19.3796L1.39322 19.3894C1.1976 19.4341 0.546876 19.6308 0.435095 20.2169C0.323314 20.8088 0.860261 21.2177 1.02793 21.3287L1.06985 21.354C1.07983 21.3598 2.012 21.8933 2.9302 22.6956C2.96813 23.8833 3.036 25.4721 3.15576 26.9889C3.25357 26.913 3.34738 26.839 3.42523 26.7689C4.59893 25.7253 5.88641 24.52 5.88641 24.52C5.88641 24.52 5.89838 24.5064 5.92234 24.4811C5.64288 24.2163 4.55302 23.1843 3.54699 22.2711C2.51102 21.3326 1.42116 20.7153 1.42116 20.7153C1.42116 20.7153 1.08582 20.4914 1.12175 20.2948C1.15967 20.0981 1.5549 20.0066 1.5549 20.0066C1.5549 20.0066 2.80046 19.808 4.11189 19.294C5.4333 18.776 6.88645 18.1685 7.17588 18.0478C7.03416 17.7557 6.35948 16.3772 5.72073 15.1466C5.08398 13.918 4.28155 12.9717 4.28155 12.9717C4.28155 12.9717 4.04602 12.6485 4.15181 12.4752C4.2556 12.3038 4.65881 12.3505 4.65881 12.3505C4.65881 12.3505 5.89838 12.5842 7.30962 12.5433C8.78273 12.5005 10.4195 12.4148 10.6531 12.4031C10.6391 12.2551 10.4834 10.6137 10.3077 9.14754C10.1441 7.78261 9.72488 6.62603 9.72488 6.62603C9.72488 6.62603 9.61909 6.24439 9.77678 6.11978C9.93647 5.99322 10.2998 6.17235 10.2998 6.17235C10.2998 6.17235 11.3816 6.80711 12.727 7.23937C14.0344 7.66189 15.4896 8.0961 15.8648 8.20709C15.8748 8.17593 15.8828 8.15841 15.8828 8.15841C15.8828 8.15841 16.3559 6.48194 16.7371 4.98072C17.0765 3.64694 17.1024 2.42026 17.1024 2.42026C17.1024 2.42026 17.1403 2.025 17.334 1.96269C17.5296 1.89844 17.805 2.1905 17.805 2.1905C17.805 2.1905 18.5895 3.15238 19.6913 4.01884C20.7393 4.84053 21.913 5.72062 22.2563 5.97569C22.4719 5.6661 23.3242 4.43553 24.0688 3.30815C24.8333 2.14961 25.2644 0.994975 25.2644 0.994975C25.2644 0.994975 25.4321 0.632812 25.6377 0.634759C25.8413 0.634759 26.007 0.99887 26.007 0.99887C26.007 0.99887 26.4281 2.1574 27.1807 3.32178C27.9472 4.50952 28.8334 5.81214 28.9911 6.04579C29.2546 5.85302 30.5081 4.93009 31.62 4.06947C32.7298 3.21274 33.5202 2.25671 33.5202 2.25671C33.5202 2.25671 33.7977 1.96659 33.9933 2.03279C34.1869 2.09704 34.2189 2.49231 34.2189 2.49231C34.2189 2.49231 34.2328 3.71899 34.5582 5.0586C34.9235 6.56567 35.3806 8.24603 35.3806 8.24603C35.3806 8.24603 35.3866 8.26355 35.3965 8.29471C35.7698 8.18761 37.227 7.76314 38.5344 7.3523C39.8818 6.92783 40.9676 6.30281 40.9676 6.30281C40.9676 6.30281 41.3329 6.12562 41.4906 6.25413C41.6483 6.38264 41.5385 6.76233 41.5385 6.76233C41.5385 6.76233 41.1093 7.91697 40.9317 9.28189C40.754 10.6585 40.5904 12.1889 40.5584 12.4927C40.8898 12.5141 42.4547 12.6115 43.8699 12.6679C45.2812 12.7244 46.5227 12.5044 46.5227 12.5044C46.5227 12.5044 46.9279 12.4615 47.0317 12.6348C47.1335 12.8062 46.896 13.1274 46.896 13.1274C46.896 13.1274 46.0836 14.0659 45.4329 15.2887C44.7542 16.5621 44.0336 17.9952 43.9298 18.1997C44.0695 18.26 45.6185 18.9279 47.0198 19.4906C48.3252 20.0163 49.5668 20.2227 49.5668 20.2227C49.5668 20.2227 49.96 20.3181 49.9959 20.5148C50.0318 20.7134 49.6925 20.9334 49.6925 20.9334C49.6925 20.9334 48.5967 21.5448 47.5527 22.4775C47.1854 22.8065 45.9219 23.6496 44.4588 24.5901C42.6783 25.9648 40.283 27.7366 37.9196 29.2281C32.127 32.8829 26.2066 35.6302 26.2066 35.6302C26.2066 35.6302 29.1927 37.258 31.61 38.2725C35.5622 39.9334 39.7281 41.3119 39.7281 41.3119C39.7281 41.3119 43.7162 38.2861 45.9479 32.84C47.5567 28.3928 47.6046 25.1548 47.4669 23.5231C47.6585 23.3537 47.8501 23.1843 48.0238 23.0305C48.9939 22.1659 50.0279 21.5818 50.0398 21.576L50.0817 21.5507C50.2514 21.4397 50.7904 21.0347 50.6846 20.4427" fill="black"/>
<path d="M40.2231 14.4865C40.2231 14.4865 40.2091 14.5274 40.1832 14.5956C39.8937 15.536 39.3767 16.6322 38.4565 17.5065C38.6162 17.4617 39.2949 17.2806 40.0035 17.2865C40.1512 17.2865 40.2989 17.2923 40.4446 17.3001C40.6383 17.3079 40.8279 17.3235 41.0115 17.3429C41.5804 17.3994 42.0076 17.4773 42.0076 17.4773L43.3669 14.7104L40.2231 14.4846V14.4865Z" fill="black"/>
<path d="M18.5237 6.09057L17.7672 9.06576C17.7672 9.06576 18.6754 9.55449 19.4419 10.162C20.0667 10.6566 20.5078 11.3166 20.5118 11.3205V11.3244C20.5118 11.3244 20.408 10.5397 20.5537 9.76478C20.7334 8.81653 21.1007 7.86829 21.1007 7.86829L18.5237 6.09252V6.09057Z" fill="black"/>
<path d="M25.6956 4.76264L23.9011 7.28805C23.9011 7.28805 24.5758 8.05521 25.0728 8.88273C25.48 9.56033 25.6537 10.3314 25.6537 10.3314V10.3353C25.6537 10.3353 25.8413 9.56617 26.2605 8.89052C26.7735 8.063 27.4641 7.30168 27.4641 7.30168L25.6956 4.76459V4.76264Z" fill="black"/>
<path d="M22.7454 8.65103C22.7454 8.65103 21.5178 10.0997 21.7054 11.0304C22.0727 12.6932 25.0608 12.1578 24.5478 10.4852C24.2065 9.48634 22.7474 8.65103 22.7474 8.65103" fill="black"/>
<path d="M26.7256 10.5397C26.1966 12.2123 29.1748 12.7692 29.558 11.1083C29.7537 10.1776 28.542 8.71723 28.542 8.71723C28.542 8.71723 27.0769 9.5428 26.7256 10.5397Z" fill="black"/>
<path d="M31.7238 11.6924C30.6918 13.106 33.2808 14.5761 34.173 13.1255C34.6561 12.3058 34.0013 10.5417 34.0013 10.5417C34.0013 10.5417 32.3725 10.8591 31.7218 11.6924" fill="black"/>
<path d="M31.7857 10.0276C32.5382 9.40456 33.4365 8.89636 33.4365 8.89636L32.6121 5.9387L30.0751 7.76899C30.0751 7.76899 30.4643 8.70944 30.6639 9.65379C30.8276 10.4248 30.7398 11.2115 30.7398 11.2115V11.2076C30.7398 11.2076 31.1689 10.5339 31.7837 10.0257" fill="black"/>
<path d="M45.8202 21.2313L42.9518 19.9696C42.9518 19.9696 42.2951 20.7543 41.5445 21.3793C40.9297 21.8914 40.5345 22.0958 40.1692 22.2575C39.1033 22.7326 37.9795 22.5729 37.9795 22.5729H37.9835C37.9835 22.5729 37.2809 22.495 36.696 21.9985C36.3328 21.7181 36.1052 21.3559 35.9795 20.9256C35.8876 20.6647 35.8457 20.396 35.8657 20.1176C35.8916 19.2297 36.4964 18.6105 36.4964 18.6105H36.4924C36.4924 18.6105 35.8497 18.7682 35.1531 18.5307C34.7738 18.4177 34.4644 18.2133 34.2109 17.9349C33.5841 17.3332 33.3446 16.5368 33.7059 15.425C33.5901 15.4971 32.8176 15.943 31.9054 15.7385C30.7657 15.462 30.0231 14.7689 29.9732 13.3124C29.8315 13.4857 29.2846 14.0776 28.4263 14.1886C27.8095 14.2568 27.2566 14.1808 26.7875 13.8946C26.7875 13.8946 26.7855 13.8946 26.7835 13.8946C25.8812 13.4468 25.6058 12.5122 25.6058 12.5122V12.516C25.6058 12.516 25.3243 13.4468 24.4141 13.8868C23.9151 14.1166 23.4221 14.2217 22.939 14.1536C22.8991 14.1614 22.8512 14.1614 22.7913 14.1536C21.929 14.0367 21.3881 13.437 21.2483 13.2657C21.1825 14.7182 20.4319 15.4075 19.2862 15.6743C18.2901 15.8884 17.4697 15.3374 17.4697 15.3374H17.4677C17.4677 15.3374 17.7412 15.9702 17.5775 16.7082C17.5037 17.1541 17.2881 17.524 16.9647 17.8414C16.7751 18.0478 16.5535 18.2133 16.296 18.3321C15.4856 18.7429 14.6373 18.5287 14.6373 18.5287H14.6393C14.6393 18.5287 15.0924 19.0019 15.2202 19.7106C15.302 20.0884 15.2701 20.4525 15.1443 20.803C14.9108 21.6285 14.3099 22.2185 13.1362 22.4522C13.1762 22.4736 13.2879 22.5378 13.4257 22.6391C13.7051 22.8572 14.1203 23.2661 14.28 23.8794C14.4077 24.4032 14.4077 24.8938 14.2401 25.3417C14.2401 25.3748 14.1542 25.5851 14.1183 25.6824C13.9007 26.0368 13.5594 26.362 13.0604 26.654C12.1043 27.1272 10.8008 27.0259 10.8008 27.0259H10.7968C10.7968 27.0259 9.98641 26.9909 9.2279 26.7164C8.30172 26.3795 7.21585 25.6474 7.21585 25.6474L3.32947 28.8134C3.41929 29.563 3.52908 30.2348 3.66082 30.7449C4.13988 32.6005 5.34152 35.5329 7.63702 38.3776C12.2879 43.6738 16.3 44.7719 16.3 44.7719C16.3 44.7719 15.1363 38.7592 14.8589 33.4027C14.7331 30.9981 14.5195 28.5038 14.5754 26.362C14.7092 26.1751 14.8289 25.9628 14.9187 25.7194C14.9467 25.6415 14.9627 25.5714 14.9746 25.5072C15.1523 24.9776 15.1663 24.3876 15.0066 23.7256C14.9108 23.3595 14.7072 23.009 14.5195 22.7481C14.5774 22.68 14.7131 22.6294 14.8948 22.4619C15.3359 22.1056 15.6433 21.6363 15.813 21.0541C15.9787 20.581 16.0106 20.0962 15.9108 19.6386C15.8868 19.5062 15.8529 19.3777 15.815 19.2589C16.0964 19.2063 16.3579 19.1187 16.5935 18.9999C16.9228 18.8481 17.2182 18.6339 17.4717 18.3613C17.9009 17.9368 18.1684 17.4403 18.2642 16.8854C18.2981 16.7238 18.3161 16.568 18.3241 16.42C18.6614 16.4726 19.0526 16.4745 19.4459 16.3908C20.5757 16.1279 21.3402 15.5029 21.7054 14.5605C21.9849 14.7085 22.3182 14.8312 22.7015 14.8837C22.7853 14.8935 22.8592 14.8954 22.927 14.8915C23.4939 14.9519 24.0908 14.8409 24.7195 14.5508C25.0888 14.3736 25.3762 14.138 25.5978 13.8985C25.8134 14.136 26.0928 14.3678 26.4481 14.5469C26.9092 14.8195 27.4522 14.9538 28.059 14.948C28.2027 14.948 28.3504 14.9363 28.5141 14.9188C28.8913 14.8701 29.2207 14.7513 29.4982 14.6072C29.8535 15.5535 30.614 16.1825 31.7457 16.457C32.103 16.5368 32.4923 16.5446 32.8316 16.4959C32.8416 17.2495 33.131 17.9076 33.6999 18.4606C34.0452 18.8325 34.4604 19.0934 34.9175 19.2297C35.0453 19.2725 35.175 19.3076 35.3088 19.3348C35.2289 19.5724 35.171 19.8411 35.1631 20.1371C35.1391 20.4875 35.191 20.84 35.3088 21.1846C35.3467 21.3053 35.3926 21.4202 35.4405 21.5331C35.3966 25.8382 35.1171 29.0918 35.1171 29.0918C35.1171 29.0918 38.0614 27.3959 40.1792 25.8713C41.1413 25.1781 42.1094 24.4791 43.0057 23.8327C43.325 23.5776 43.5566 23.3907 43.5566 23.3907L46.1435 21.4163L45.8162 21.2372L45.8202 21.2313Z" fill="black"/>
</g>
<defs>
<clipPath id="clip0_1_22">
<rect width="51" height="62" fill="white"/>
</clipPath>
</defs>
</svg>
