<svg width="475" height="117" viewBox="0 0 475 117" fill="none" xmlns="http://www.w3.org/2000/svg">
<g clip-path="url(#clip0_69_1296)">
<path d="M138.069 86.9269C137.826 86.9412 138.169 87.127 136.207 89.9C134.244 92.673 131.464 95.1101 130.039 96.1178C128.613 97.1327 126.314 98.7908 126.45 99.0623C126.586 99.3339 128.649 98.2833 130.039 97.6115C131.429 96.9326 133.9 96.2965 135.834 93.2519C137.768 90.2073 138.542 86.9054 138.069 86.9269Z" fill="#A4874D"/>
<path d="M141.68 87.6273C142.604 87.713 143.843 82.5315 143.879 78.9509C143.9 76.5567 143.993 71.9827 144.244 70.4246C144.495 68.8666 145.534 67.3514 145.225 67.3014C144.609 67.2014 142.374 72.3686 142.066 73.4907C141.952 73.9052 141.823 75.0201 141.923 79.5584C142.031 84.4683 141.243 87.5844 141.687 87.6273H141.68Z" fill="#A4874D"/>
<path d="M162.948 82.1527L160.562 86.7982C164.388 88.3348 164.488 91.0721 164.488 91.0721C164.33 91.3651 163.227 92.8874 161.114 94.5598C160.004 95.4389 158.542 96.3608 158.657 96.5109C158.772 96.661 159.259 96.2465 159.918 95.9749C160.727 95.6461 163.263 95.103 163.263 95.103C163.263 95.103 166.451 91.8583 166.451 87.0055C166.451 83.3677 162.955 82.1527 162.955 82.1527H162.948Z" fill="#A4874D"/>
<path d="M150.068 91.165C149.91 91.458 148.807 92.9803 146.694 94.6527C145.584 95.5318 144.122 96.4537 144.237 96.6038C144.351 96.7539 144.839 96.3394 145.498 96.0678C146.307 95.739 148.843 95.1959 148.843 95.1959C148.843 95.1959 152.031 91.9512 152.031 87.0984C152.031 83.4606 148.535 82.2456 148.535 82.2456L146.149 86.8911C149.975 88.4277 150.075 91.165 150.075 91.165H150.068Z" fill="#A4874D"/>
<path d="M157.446 66.6725C157.31 66.6439 155.67 70.8463 155.534 72.2114C155.398 73.5764 155.455 77.8146 155.434 80.5447C155.412 83.2748 156.458 96.3608 154.244 100.527C152.031 104.694 146.579 107.953 142.124 105.852C136.701 103.286 139.079 96.5109 139.638 94.9314C140.304 93.0589 141.608 90.729 141.357 90.6719C141.114 90.6147 140.369 92.1299 139.516 93.888C138.836 95.2888 134.96 104.115 138.7 108.618C142.346 112.999 148.184 110.976 151.35 107.431C154.395 104.008 155.885 99.1982 156.322 96.3036C157.26 90.093 157.282 87.2771 157.189 81.7311C157.095 76.1851 157.124 71.7254 157.138 69.71C157.146 67.6874 157.833 66.7654 157.439 66.6797L157.446 66.6725Z" fill="#A4874D"/>
<path d="M265.028 84.9472C264.097 84.3826 263.251 84.6113 262.707 85.4904C262.377 86.0192 261.525 87.806 261.317 88.2133C261.109 88.6279 260.594 89.7785 261.009 90.6576C261.425 91.5367 262.27 92.0941 263.173 92.0941C264.075 92.0941 264.433 91.8368 264.591 92.1727C264.749 92.5086 263.688 93.7379 261.933 95.2102C260.515 96.3966 256.339 99.3482 256.704 99.7628C257.069 100.177 260.83 96.6253 262.915 96.6753C264.204 96.7039 264.383 96.0321 264.978 95.0815C265.572 94.131 266.747 91.4866 266.783 89.5284C266.833 86.8054 265.959 85.5189 265.028 84.9543V84.9472Z" fill="white"/>
<path d="M246.639 84.8042C245.708 84.2396 244.862 84.4683 244.318 85.3474C243.989 85.8763 243.136 87.663 242.928 88.0704C242.721 88.4849 242.205 89.6356 242.62 90.5146C243.036 91.3937 243.881 91.9512 244.784 91.9512C245.686 91.9512 246.044 91.6939 246.202 92.0298C246.36 92.3657 245.299 93.595 243.544 95.0672C242.126 96.2536 237.95 99.2053 238.315 99.6198C238.68 100.034 242.441 96.4823 244.526 96.5323C245.815 96.5609 245.994 95.8891 246.589 94.9386C247.183 93.988 248.358 91.3437 248.394 89.3854C248.444 86.6624 247.57 85.376 246.639 84.8114V84.8042Z" fill="white"/>
<path d="M176.551 85.8405C177.841 85.8691 178.02 85.1973 178.615 84.2468C179.209 83.2962 180.384 80.6519 180.42 78.6936C180.47 75.9706 179.596 74.6842 178.665 74.1196C177.733 73.555 176.888 73.7837 176.344 74.6627C176.014 75.1916 175.162 76.9784 174.954 77.3857C174.746 77.8002 174.23 78.9509 174.646 79.83C175.061 80.709 175.907 81.2665 176.809 81.2665C177.712 81.2665 178.07 81.0092 178.228 81.3451C178.385 81.681 177.325 82.9103 175.57 84.3826C174.152 85.5689 169.975 88.5206 170.341 88.9352C170.699 89.3497 174.467 85.7977 176.551 85.8477V85.8405Z" fill="white"/>
<path d="M226.803 80.3088C226.187 80.2016 224.468 84.404 224.138 85.5118C224.017 85.9263 223.866 87.0341 223.888 91.5724C223.909 96.4823 223.057 99.5841 223.501 99.6341C224.418 99.7413 225.757 94.5741 225.851 91.0006C225.915 88.6064 226.087 84.0395 226.366 82.4887C226.646 80.9378 227.104 80.3589 226.796 80.3088H226.803Z" fill="white"/>
<path d="M233.53 85.183L231.145 89.8285C234.97 91.3651 235.07 94.1024 235.07 94.1024C234.913 94.3954 233.809 95.9177 231.696 97.5901C230.586 98.4692 229.124 99.3911 229.239 99.5412C229.354 99.6913 229.841 99.2768 230.5 99.0052C231.309 98.6764 233.845 98.1333 233.845 98.1333C233.845 98.1333 237.033 94.8886 237.033 90.0358C237.033 86.398 233.537 85.183 233.537 85.183H233.53Z" fill="white"/>
<path d="M192.34 82.1527L189.954 86.7982C193.78 88.3348 193.88 91.0721 193.88 91.0721C193.722 91.3651 192.619 92.8874 190.506 94.5598C189.396 95.4389 187.934 96.3608 188.049 96.5109C188.163 96.661 188.651 96.2465 189.31 95.9749C190.119 95.6461 192.655 95.103 192.655 95.103C192.655 95.103 195.843 91.8583 195.843 87.0055C195.843 83.3677 192.347 82.1527 192.347 82.1527H192.34Z" fill="white"/>
<path d="M204.64 89.0567C202.476 87.9989 202.419 83.4678 202.591 78.1433C202.705 74.5198 202.963 67.2943 202.67 67.3372C202.526 67.3586 202.533 67.9804 201.831 70.0458C201.531 70.9321 201.101 71.611 201.058 71.9326C200.965 72.7117 200.879 84.8543 200.829 88.4349C200.778 91.8225 202.068 94.3097 203.544 94.4883C205.019 94.667 206.545 92.0727 206.946 90.3145C207.462 88.0561 207.218 87.0198 207.111 87.0198C206.968 87.0198 206.839 90.1216 204.647 89.0567H204.64Z" fill="white"/>
<path d="M123.943 90.4932C121.779 89.4354 121.722 84.9043 121.894 79.5798C122.008 75.9563 122.266 68.7308 121.973 68.7737C121.829 68.7951 121.836 69.4169 121.134 71.4824C120.834 72.3686 120.404 73.0475 120.361 73.3692C120.268 74.1482 120.182 86.2908 120.132 89.8714C120.081 93.259 121.371 95.7462 122.847 95.9248C124.322 96.1035 125.848 93.5092 126.249 91.751C126.765 89.4926 126.521 88.4563 126.414 88.4563C126.271 88.4563 126.142 91.5581 123.95 90.4932H123.943Z" fill="white"/>
<path d="M186.186 69.5241C186.158 67.5015 186.824 66.5724 186.43 66.4938C186.294 66.4652 184.732 70.7034 184.625 72.0684C184.517 73.4335 184.653 77.6716 184.682 80.4017C184.711 83.1319 185.993 96.1964 183.858 100.399C181.724 104.601 176.329 107.967 171.838 105.945C166.365 103.479 168.621 96.661 169.152 95.0744C169.782 93.1876 171.043 90.8363 170.792 90.7862C170.548 90.729 169.832 92.2585 169.015 94.0381C168.364 95.4532 164.646 104.344 168.471 108.775C172.196 113.092 177.999 110.962 181.093 107.353C184.073 103.879 185.477 99.0409 185.857 96.1393C186.681 89.9072 186.652 87.0984 186.459 81.5524C186.265 76.0064 186.215 71.5538 186.186 69.5313V69.5241Z" fill="white"/>
<path d="M114.494 84.697C116.02 81.1522 115.239 78.9866 114.207 77.4643C113.076 75.792 111.6 75.9135 111.106 76.135C110.611 76.3566 108.541 80.5876 108.133 81.2808C107.997 81.5095 107.631 82.9675 109.114 83.675C110.604 84.3826 111.786 83.432 112.13 83.3963C112.388 83.3677 112.925 83.9752 113.154 84.454C113.169 84.8185 113.126 85.2045 113.04 85.6118C113.011 85.6833 112.997 85.7405 112.997 85.7405H113.018C112.646 87.4343 111.593 89.4069 110.661 91.6581C109.379 94.767 109.623 96.0749 110.561 96.904C111.492 97.733 113.47 98.2476 113.362 99.9057C113.262 101.564 109.565 106.981 104.3 106.116C98.0752 105.094 99.6153 97.5758 100.976 94.2096C102.273 91.0078 103.741 88.3062 103.362 88.1347C102.982 87.9632 100.375 92.5729 98.9133 97.5758C97.1582 103.593 97.76 110.605 103.756 110.719C109.802 110.833 113.914 103.529 114.745 99.1481C115.576 94.767 114.623 93.9023 112.424 92.6801C110.962 91.8725 112.065 90.7147 112.818 89.0209C113.384 87.7488 114.043 86.2694 114.494 84.697Z" fill="white"/>
<path d="M341.964 87.613C341.642 87.5773 341.011 89.2139 337.243 90.5861C332.816 92.2013 329.593 92.7231 323.195 93.2019C317.801 93.6021 306.977 93.0733 303.725 91.7511C300.473 90.4289 301.963 88.4706 301.361 88.3992C300.81 88.3348 298.438 94.6027 301.469 96.5038C304.327 98.3048 312.93 98.7408 322.73 97.7116C334.965 96.4252 337.544 94.4526 339.442 92.8946C341.341 91.3365 342.609 87.6845 341.964 87.613Z" fill="white"/>
<path d="M374.551 78.0504C374.071 78.0718 371.205 77.1499 369.572 75.9778C367.939 74.8057 366.098 74.2697 364.694 74.9987C363.29 75.7277 360.99 78.3577 361.27 78.7794C361.578 79.2439 362.165 77.4 363.741 77.3357C365.317 77.2642 366.621 78.665 367.803 79.3083C369.307 80.123 369.665 79.9872 369.658 80.1516C369.651 80.4875 366.907 83.0175 365.74 84.0038C365.288 84.3897 364.271 84.9972 363.662 85.0401C362.667 85.1044 362.659 84.5398 362.523 84.5612C362.523 84.5612 362.172 85.7905 361.019 86.2122C360.324 86.4623 360.116 86.2408 359.866 86.0692C359.615 85.8977 359.543 85.6047 359.486 85.6118C359.371 85.6333 358.963 87.32 356.828 87.2699C355.453 87.2342 355.195 86.7625 353.92 86.7696C352.15 86.7696 350.023 87.5201 347.337 90.5075C344.643 93.4949 341.133 98.4763 338.848 100.963C336.563 103.451 334.342 104.558 334.657 104.744C334.75 104.801 337.043 104.194 339.421 102.257C341.799 100.32 345.037 94.2525 348.547 91.9655C352.057 89.6784 353.848 91.1579 356.004 90.9149C358.168 90.6719 358.762 89.314 358.762 89.314C360.954 90.0787 362.437 88.0061 362.437 88.0061C364.422 88.4921 367.38 84.9686 368.899 83.5178C370.417 82.067 372.903 79.8085 373.469 79.637C374.035 79.4655 374.837 78.0504 374.551 78.0575V78.0504Z" fill="white"/>
<path d="M302.206 80.8949C302.02 81.0378 300.272 83.0818 298.03 82.9317C295.817 82.7817 294.928 81.7025 294.72 81.1522C294.513 80.6018 294.914 79.9515 295.337 79.5155C296.125 78.7079 296.791 78.5149 297.593 78.6079C298.739 78.7436 299.212 79.2225 299.735 78.6936C300.852 77.5573 298.08 75.3846 296.275 77.0856C294.599 78.665 291.511 83.332 291.261 84.2539C291.117 84.7828 291.225 85.862 292.163 86.4123C293.445 87.1699 295.501 86.6338 295.501 86.6338L294.907 87.3128C293.102 89.0638 292.708 90.7576 292.392 90.7576C292.077 90.7576 291.984 88.2705 290.709 88.0204C290.057 87.8917 289.09 87.9274 287.779 89.5426C286.468 91.1578 285.193 92.5301 282.879 92.187C280.565 91.844 279.82 89.7285 280.257 88.2348C280.694 86.7411 281.54 84.1896 281.439 84.1896C281.339 84.1896 281.067 83.7822 279.756 87.2985C278.445 90.8148 276.167 93.209 273.581 95.2959C270.995 97.3828 267.958 98.705 268.122 99.2196C268.23 99.5626 270.773 98.2405 271.926 98.2619C273.072 98.2833 274.584 98.3048 275.666 96.711C276.747 95.1172 277.22 94.1024 277.578 94.1024C277.936 94.1024 278.338 97.2828 281.045 97.3399C285.186 97.4328 285.616 93.2305 287.98 93.2305C289.427 93.2305 290.114 94.8171 290.379 95.9534C290.601 96.904 290.644 97.7902 290.924 97.7688C291.432 97.733 291.848 95.0887 292.672 92.8016C293.102 91.6153 293.947 90.4146 294.67 89.5355C294.67 89.5355 296.776 87.0984 298.925 85.0258C301.075 82.9532 302.206 81.9741 302.407 81.7954C302.701 81.5309 302.579 80.6161 302.206 80.902V80.8949Z" fill="white"/>
<path d="M321.319 79.3654C321.405 79.294 323.589 81.4452 324.213 81.4452C324.779 81.4452 326.913 79.2511 326.928 78.6221C326.942 77.9932 324.112 75.8992 324.012 75.8992C323.912 75.8992 321.397 78.5721 321.247 78.5721C321.097 78.5721 318.138 76.328 318.088 76.328C318.038 76.328 315.158 79.5155 315.158 79.5155C315.158 79.5155 317.887 81.8954 318.568 81.924C319.377 81.9669 321.319 79.3654 321.319 79.3654Z" fill="white"/>
<path d="M114.05 63.0133C113.949 63.0133 111.435 65.6862 111.285 65.6862C111.134 65.6862 108.176 63.4421 108.125 63.4421C108.075 63.4421 105.196 66.6296 105.196 66.6296C105.196 66.6296 107.925 69.0095 108.605 69.0381C109.415 69.081 111.356 66.4795 111.356 66.4795C111.442 66.4081 113.627 68.5593 114.25 68.5593C114.816 68.5593 116.951 66.3652 116.965 65.7363C116.98 65.1073 114.15 63.0133 114.05 63.0133Z" fill="white"/>
<path d="M124.129 106.031C123.484 105.559 121.851 104.594 121.464 104.358L118.742 107.724C118.742 107.724 121.758 109.997 122.18 109.983C122.603 109.961 123.699 108.561 124.301 107.732C124.903 106.903 124.552 106.345 124.129 106.031Z" fill="white"/>
<path d="M205.148 105.28C204.503 104.808 202.87 103.844 202.483 103.608L199.761 106.974C199.761 106.974 202.777 109.247 203.2 109.232C203.622 109.211 204.718 107.81 205.32 106.981C205.922 106.152 205.571 105.595 205.148 105.28Z" fill="white"/>
<path d="M256.955 73.2119C270.551 69.0524 276.031 64.4569 277.901 63.1205C280.272 61.4124 283.116 59.354 285.852 57.4816C288.581 55.6091 291.318 54.4012 291.583 54.0939C291.841 53.7866 292.063 52.8503 291.784 52.8003C291.504 52.7503 288.18 54.5299 285.623 54.1296C283.066 53.7294 281.69 51.521 282.557 50.4347C283.417 49.3484 284.942 48.9553 286.554 49.2697C287.808 49.5127 288.309 50.5776 289.19 50.1417C289.921 49.7843 289.491 48.3907 288.438 47.7975C287.385 47.2043 285.609 46.5611 283.338 48.6408C279.756 51.9141 278.051 54.0081 278.08 54.5513C278.123 55.2874 278.488 55.9664 279.376 56.6882C280.157 57.3243 281.497 57.4387 281.447 57.6602C281.389 57.9032 272.091 65.579 256.668 68.5664C241.238 71.5538 235.357 69.9601 231.496 69.3812C227.627 68.8023 226.152 67.2443 225.922 67.2943C225.514 67.38 224.919 68.0519 225.02 69.1382C225.02 69.1382 221.438 68.0661 217.806 72.1185C214.174 76.1708 213.014 83.5964 212.756 86.6124C212.498 89.6284 212.168 98.3834 212.261 102.443C212.355 106.502 212.749 115.093 213.214 115C213.68 114.907 212.756 106.224 213.178 95.9606C213.608 85.6976 214.525 80.1373 216.667 76.5067C218.286 73.7622 220.664 72.8975 222.799 73.9409C224.447 74.7485 225.629 76.2851 226.302 76.2279C227.162 76.1565 228.121 74.0767 229.526 74.5484C230.937 75.013 243.365 77.3714 256.955 73.2119Z" fill="white"/>
<path d="M357.287 68.788C358.311 68.1948 360.159 67.4944 361.449 66.5796C362.738 65.6648 363.741 63.2848 363.268 63.7208C360.288 66.4938 355.238 69.5027 355.238 69.7671C355.238 69.9744 356.262 69.374 357.287 68.7808V68.788Z" fill="white"/>
<path d="M287.421 73.1119C287.421 73.3191 288.445 72.7188 289.47 72.1256C290.494 71.5324 292.342 70.832 293.632 69.9172C294.921 69.0024 295.924 66.6225 295.451 67.0584C292.471 69.8314 287.421 72.8403 287.421 73.1047V73.1119Z" fill="white"/>
<path d="M129.329 67.1657C129.179 67.2157 128.133 68.7523 128.176 69.0453C128.241 69.5456 130.024 70.6248 129.788 73.0905C129.63 74.6914 127.775 77.8575 127.976 77.9075C128.176 77.9575 129.809 75.4918 130.59 72.8832C131.479 69.9458 130.003 66.937 129.329 67.1585V67.1657Z" fill="white"/>
<path d="M376.893 30.845C376.649 30.8593 376.993 31.0451 375.031 33.8181C373.068 36.5911 370.288 39.0282 368.863 40.0359C367.437 41.0508 365.138 42.7089 365.274 42.9805C365.41 43.252 367.473 42.2014 368.863 41.5296C370.252 40.8507 372.724 40.2146 374.658 37.17C376.592 34.1254 377.366 30.8235 376.893 30.845Z" fill="white"/>
<path d="M139.76 31.574C139.516 31.5883 139.86 31.7741 137.897 34.5471C135.934 37.3201 133.155 39.7572 131.729 40.7649C130.304 41.7726 128.004 43.4379 128.14 43.7095C128.276 43.981 130.339 42.9304 131.729 42.2586C133.119 41.5797 135.59 40.9436 137.524 37.899C139.459 34.8544 140.232 31.5525 139.76 31.574Z" fill="white"/>
<path d="M224.919 33.4036C224.676 33.4179 225.02 33.6037 223.057 36.3767C221.094 39.1497 218.315 41.5868 216.889 42.5945C215.464 43.6022 213.164 45.2675 213.3 45.5391C213.436 45.8106 215.499 44.76 216.889 44.0882C218.279 43.4093 220.75 42.7732 222.684 39.7286C224.619 36.684 225.392 33.3821 224.919 33.4036Z" fill="white"/>
<path d="M353.841 23.1549C354.436 22.2043 355.61 19.56 355.646 17.6017C355.696 14.8787 354.822 13.5923 353.891 13.0277C352.96 12.4631 352.115 12.6918 351.57 13.5709C351.241 14.0997 350.388 15.8865 350.181 16.2938C349.973 16.7084 349.457 17.859 349.872 18.7381C350.288 19.6172 351.133 20.1746 352.036 20.1746C352.938 20.1746 353.297 19.9173 353.454 20.2532C353.612 20.5891 352.552 21.8184 350.797 23.2907C349.378 24.4771 345.202 27.4287 345.567 27.8433C345.933 28.2578 349.693 24.7058 351.778 24.7558C353.067 24.7844 353.246 24.1126 353.841 23.162V23.1549Z" fill="white"/>
<path d="M145.648 21.3825C145.927 19.8316 146.995 18.3307 146.687 18.2807C146.071 18.1735 143.742 23.2979 143.413 24.4056C143.291 24.8201 143.141 25.9279 143.162 30.4662C143.184 35.3762 142.331 38.4779 142.775 38.5279C143.692 38.6352 145.032 33.4679 145.125 29.8945C145.189 27.5002 145.361 22.9334 145.641 21.3825H145.648Z" fill="white"/>
<path d="M114.494 24.2841C116.02 20.7392 115.239 18.5737 114.207 17.0514C113.076 15.379 111.6 15.5005 111.106 15.7221C110.611 15.9436 108.541 20.1746 108.133 20.8679C107.997 21.0966 107.631 22.5545 109.114 23.2621C110.604 23.9696 111.786 23.0191 112.13 22.9834C112.388 22.9548 112.925 23.5623 113.154 24.0411C113.169 24.4056 113.126 24.7915 113.04 25.1989C113.011 25.2704 112.997 25.3276 112.997 25.3276H113.018C112.646 27.0214 111.593 28.9939 110.661 31.2452C109.379 34.3541 109.623 35.662 110.561 36.491C111.492 37.3201 113.47 37.8347 113.362 39.4928C113.262 41.1508 109.565 46.5682 104.3 45.7034C98.0752 44.6814 99.6153 37.1629 100.976 33.7967C102.273 30.5948 103.741 27.8933 103.362 27.7218C102.982 27.5502 100.375 32.16 98.9133 37.1629C97.1582 43.1806 97.76 50.1917 103.756 50.306C109.802 50.4204 113.914 43.1162 114.745 38.7352C115.576 34.3541 114.623 33.4893 112.424 32.2672C110.962 31.4596 112.065 30.3018 112.818 28.608C113.384 27.3358 114.043 25.8564 114.494 24.2841Z" fill="white"/>
<path d="M337.565 25.4562C337.565 25.4562 335.911 28.9296 335.911 29.0654C335.911 29.2012 340.531 30.7664 338.998 34.1254C337.974 36.3624 334.736 38.9067 334.815 38.9639C334.893 39.0211 335.861 38.3207 336.534 37.949C337.207 37.5774 338.325 37.4345 339.306 35.7835C340.553 33.6895 341.197 31.8527 341.011 29.4085C340.81 26.7712 337.558 25.4491 337.558 25.4491L337.565 25.4562Z" fill="white"/>
<path d="M335.581 31.431C335.409 31.381 334.908 32.6103 331.641 35.8121C329.048 38.3564 325.961 40.0288 326.097 40.2074C326.226 40.3861 327.766 39.407 329.456 38.8138C331.147 38.2206 332.888 36.7698 334.206 34.7686C335.524 32.7675 335.732 31.4739 335.588 31.431H335.581Z" fill="white"/>
<path d="M322.436 24.5486L320.051 29.1941C323.876 30.7306 323.976 33.4679 323.976 33.4679C323.819 33.7609 322.716 35.2832 320.602 36.9556C319.492 37.8347 318.031 38.7566 318.145 38.9067C318.26 39.0568 318.747 38.6423 319.406 38.3707C320.216 38.0419 322.751 37.4988 322.751 37.4988C322.751 37.4988 325.939 34.2541 325.939 29.4013C325.939 25.7635 322.443 24.5486 322.443 24.5486H322.436Z" fill="white"/>
<path d="M161.866 27.0571L159.481 31.7026C163.306 33.2392 163.406 35.9765 163.406 35.9765C163.249 36.2695 162.146 37.7918 160.032 39.4642C158.922 40.3432 157.461 41.2652 157.575 41.4153C157.69 41.5654 158.177 41.1508 158.836 40.8792C159.645 40.5505 162.181 40.0073 162.181 40.0073C162.181 40.0073 165.369 36.7626 165.369 31.9099C165.369 28.2721 161.873 27.0571 161.873 27.0571H161.866Z" fill="white"/>
<path d="M123.864 34.9402C121.7 33.8824 121.643 29.3513 121.815 24.0268C121.93 20.4033 122.187 13.1778 121.894 13.2207C121.75 13.2421 121.758 13.8639 121.056 15.9294C120.755 16.8156 120.325 17.4945 120.282 17.8162C120.189 18.5952 120.103 30.7378 120.053 34.3184C120.003 37.706 121.292 40.1932 122.768 40.3718C124.236 40.5505 125.769 37.9562 126.17 36.198C126.686 33.9396 126.443 32.9033 126.335 32.9033C126.192 32.9033 126.063 36.0051 123.871 34.9402H123.864Z" fill="white"/>
<path d="M225.192 15.3504C226.302 13.6566 226.209 12.7418 224.948 12.1343C223.694 11.5268 221.316 10.612 220.342 11.8556C219.368 13.0992 218.293 15.6149 218.293 15.6149C213.966 17.2873 211.366 20.5891 209.976 24.3127C209.274 26.1923 208.88 28.172 208.723 30.116C208.257 35.9121 208.193 37.0628 208.214 41.6368C208.236 46.2109 208.758 56.6382 209.152 55.7734C209.539 54.9087 209.568 45.3103 209.582 42.6445C209.597 39.9787 209.131 28.5865 211.28 24.377C213.429 20.1675 218.135 19.124 220.7 18.5237C223.265 17.9305 224.081 17.0443 225.192 15.3504Z" fill="white"/>
<path d="M155.383 35.0903C153.965 35.7335 152.231 33.9467 152.324 32.4173C152.418 30.8879 153.177 28.1291 152.797 28.0505C152.496 27.9862 152.145 29.1797 151.536 31.5597C150.935 33.9467 149.423 36.5125 147.991 38.1277C146.558 39.7429 143.076 41.9584 143.327 42.5302C143.492 42.9233 144.588 42.23 145.992 41.8084C147.396 41.3867 148.019 40.8578 148.592 39.9216C149.165 38.9853 150.362 36.8127 150.491 36.8412C150.834 36.9127 150.412 39.993 152.711 40.4361C155.29 40.9293 157.11 33.6466 156.623 33.2821C156.322 33.0534 156.343 34.6543 155.383 35.0903Z" fill="white"/>
<path d="M315.531 6.75984C315.502 4.73726 316.168 3.80816 315.774 3.72954C315.638 3.70096 314.076 7.93908 313.969 9.30415C313.862 10.6692 313.998 14.9073 314.026 17.6375C314.055 20.3676 315.337 33.4322 313.203 37.6346C311.068 41.8441 305.674 45.2031 301.182 43.1806C295.709 40.7149 297.966 33.8967 298.496 32.3101C299.126 30.4233 300.387 28.072 300.136 28.0219C299.893 27.9648 299.176 29.4942 298.36 31.2738C297.708 32.6889 293.99 41.5797 297.815 46.0107C301.54 50.3275 307.343 48.1977 310.437 44.5885C313.417 41.1151 314.821 36.2766 315.201 33.375C316.025 27.1429 315.996 24.3341 315.803 18.7881C315.609 13.2421 315.559 8.78957 315.531 6.76699V6.75984Z" fill="white"/>
<path d="M371.341 23.8339C373.526 19.6386 372.688 17.2015 371.564 15.5291C370.432 13.8568 368.956 13.9783 368.462 14.1998C367.96 14.4214 365.897 18.6595 365.489 19.3456C365.353 19.5814 364.987 21.0323 366.47 21.7327C367.96 22.4402 369.149 21.4825 369.486 21.4539C369.83 21.4182 370.682 22.5117 370.611 22.9262C370.561 23.2121 370.26 23.9839 369.737 24.6772C369.042 25.592 367.81 26.321 367.323 26.0137C366.9 25.7492 366.685 25.1489 366.083 24.9845C365.482 24.813 361.979 26.2066 360.023 29.9588C358.067 33.7109 358.282 35.6406 359.171 36.6054C360.052 37.5702 361.936 37.9562 361.936 38.3993C361.936 39.2426 360.109 41.9013 357.666 43.345C355.711 44.5099 353.34 44.8315 352.05 44.5171C349.514 43.8953 346.935 40.4862 348.834 34.9259C350.739 29.3656 353.153 26.6355 352.745 26.4068C352.544 26.2924 350.589 29.5014 348.812 33.1106C347.036 36.7198 344.521 45.5105 349.328 48.3407C354.135 51.1637 359.443 45.9179 361.327 42.2872C363.218 38.6566 363.762 35.6406 363.555 34.4185C363.182 32.2887 358.913 32.5817 361.105 29.7301C362.072 28.4794 363.01 28.0005 364.006 27.8504C365.654 27.6003 366.055 28.1792 367.008 28.1435C368.032 28.1077 369.816 26.7212 371.349 23.841L371.341 23.8339Z" fill="white"/>
<path d="M154.094 21.3753C156.716 23.0262 164.61 23.4265 173.6 22.4831C184.825 21.3038 187.189 19.4957 188.93 18.0663C190.671 16.6369 191.838 13.285 191.237 13.2207C190.943 13.1849 190.363 14.6858 186.903 15.9508C182.841 17.4302 179.883 17.9162 174.016 18.3521C169.073 18.7166 159.137 18.2307 156.157 17.0228C153.177 15.815 154.538 14.014 153.986 13.9496C153.478 13.8925 151.3 19.6386 154.087 21.3824L154.094 21.3753Z" fill="white"/>
<path d="M202.089 17.6303C200.456 16.4582 198.615 15.9222 197.211 16.6512C195.807 17.3802 193.507 20.0102 193.787 20.4319C194.095 20.8965 194.682 19.0526 196.258 18.9882C197.834 18.9239 199.138 20.3176 200.32 20.9608C201.824 21.7755 202.182 21.6397 202.175 21.8041C202.168 22.14 199.424 24.67 198.257 25.6563C197.805 26.0422 196.788 26.6497 196.179 26.6926C195.184 26.7569 195.176 26.1923 195.04 26.2138C195.04 26.2138 194.689 27.443 193.536 27.8647C192.841 28.1149 192.633 27.8933 192.383 27.7218C192.132 27.5503 192.06 27.2572 192.003 27.2644C191.888 27.2858 191.48 28.9725 189.345 28.9225C187.97 28.8867 187.712 28.415 186.437 28.4222C184.668 28.4222 182.54 29.1726 179.854 32.16C177.16 35.1474 173.65 40.1288 171.365 42.616C169.08 45.1031 166.859 46.2109 167.174 46.3967C167.267 46.4539 169.56 45.8464 171.938 43.9095C174.316 41.9727 177.554 35.905 181.064 33.618C184.574 31.331 186.365 32.8104 188.522 32.5674C190.685 32.3244 191.279 30.9665 191.279 30.9665C193.472 31.7312 194.954 29.6586 194.954 29.6586C196.939 30.1446 199.897 26.6211 201.416 25.1703C202.935 23.7195 205.42 21.4611 205.986 21.2895C206.552 21.118 207.354 19.7029 207.068 19.7101C206.588 19.7315 203.723 18.8096 202.089 17.6375V17.6303Z" fill="white"/>
<path d="M358.375 5.88078C358.461 5.80931 360.646 7.96053 361.27 7.96053C361.835 7.96053 363.97 5.76643 363.984 5.1375C363.999 4.50857 361.169 2.41452 361.069 2.41452C360.969 2.41452 358.454 5.08747 358.304 5.08747C358.153 5.08747 355.195 2.84334 355.145 2.84334C355.095 2.84334 352.215 6.03086 352.215 6.03086C352.215 6.03086 354.944 8.41079 355.625 8.43938C356.434 8.48226 358.375 5.88078 358.375 5.88078Z" fill="white"/>
<path d="M172.11 8.83247C172.196 8.761 174.381 10.9122 175.004 10.9122C175.57 10.9122 177.705 8.71812 177.719 8.08919C177.733 7.46026 174.904 5.36621 174.804 5.36621C174.703 5.36621 172.189 8.03916 172.038 8.03916C171.888 8.03916 168.929 5.79503 168.879 5.79503C168.829 5.79503 165.949 8.98255 165.949 8.98255C165.949 8.98255 168.679 11.3625 169.359 11.3911C170.169 11.4339 172.11 8.83247 172.11 8.83247Z" fill="white"/>
<path d="M153.306 46.0679C153.205 46.0679 150.691 48.7409 150.541 48.7409C150.39 48.7409 147.432 46.4967 147.382 46.4967C147.331 46.4967 144.452 49.6843 144.452 49.6843C144.452 49.6843 147.181 52.0642 147.861 52.0928C148.671 52.1357 150.612 49.5342 150.612 49.5342C150.698 49.4627 152.883 51.6139 153.506 51.6139C154.072 51.6139 156.207 49.4198 156.221 48.7909C156.236 48.162 153.406 46.0679 153.306 46.0679Z" fill="white"/>
<path d="M113.161 5.46625C113.061 5.46625 110.547 8.1392 110.396 8.1392C110.246 8.1392 107.287 5.89506 107.237 5.89506C107.187 5.89506 104.307 9.08259 104.307 9.08259C104.307 9.08259 107.037 11.4625 107.717 11.4911C108.527 11.534 110.468 8.93251 110.468 8.93251C110.554 8.86104 112.739 11.0123 113.362 11.0123C113.928 11.0123 116.063 8.81815 116.077 8.18923C116.091 7.5603 113.262 5.46625 113.161 5.46625Z" fill="white"/>
<path d="M372.917 5.37335C373.519 4.5443 373.168 3.98684 372.745 3.67238C372.101 3.20068 370.467 2.23585 370.081 2L367.358 5.3662C367.358 5.3662 370.374 7.63892 370.797 7.62463C371.22 7.60319 372.316 6.20239 372.917 5.37335Z" fill="white"/>
<path d="M222.548 24.813C222.548 24.813 225.564 27.0857 225.987 27.0714C226.409 27.0571 227.498 25.6492 228.107 24.8201C228.709 23.9911 228.358 23.4336 227.935 23.1192C227.291 22.6475 225.657 21.6826 225.27 21.4468L222.548 24.813Z" fill="white"/>
<path d="M243.673 16.3796C244.275 15.5506 243.924 14.9931 243.501 14.6786C242.857 14.2069 241.223 13.2421 240.837 13.0063L238.115 16.3725C238.115 16.3725 241.13 18.6452 241.553 18.6309C241.976 18.6094 243.064 17.2086 243.673 16.3796Z" fill="white"/>
<path d="M125.196 46.8398C124.552 46.3681 122.918 45.4033 122.531 45.1674L119.809 48.5336C119.809 48.5336 122.825 50.8063 123.248 50.792C123.67 50.7706 124.759 49.3698 125.368 48.5408C125.977 47.7117 125.619 47.1543 125.196 46.8398Z" fill="white"/>
<path d="M301.382 20.7178C304.377 19.024 305.287 16.2152 305.165 14.5C305.022 12.6203 301.776 11.8413 300.043 10.6621C298.309 9.48283 298.288 7.59604 297.93 7.4674C297.529 7.32446 296.117 9.37563 295.766 11.1409C295.716 11.3911 292.349 14.064 291.604 17.1015C291.225 18.6452 292.013 19.4742 292.013 19.4742C292.013 19.4742 277.858 29.1869 261.424 31.2595C252.312 32.403 246.725 31.0594 244.11 29.8444C238.329 27.1643 238.315 29.7444 236.037 32.6031C234.203 34.9044 234.017 34.6757 234.017 34.6757C233.207 32.11 231.237 31.6454 230.435 32.2887C229.54 33.0105 228.723 35.6835 228.05 36.4911C227.34 37.3272 227.835 38.3921 228.487 38.8424C229.139 39.2927 231.237 39.6571 231.237 39.6571C230.729 40.7935 228.422 42.5802 226.961 43.3307C225.628 44.0096 223.565 45.1317 223.816 45.4533C223.959 45.632 224.812 45.3104 226.803 44.6457C229.447 43.7595 229.275 44.6957 230.707 43.7094C232.226 42.6589 233.78 38.1134 233.78 38.1134C235.034 36.8555 235.378 36.3553 236.467 34.8759C238.157 32.596 239.096 32.353 239.784 32.546C240.837 32.8318 240.7 34.8973 243.845 35.805C246.997 36.7126 253.595 37.3201 261.36 36.0408C269.125 34.7615 276.425 31.8456 283.245 27.6718C290.064 23.4979 294.276 20.8965 294.835 20.532C295.494 20.1032 301.089 20.9036 301.404 20.7249L301.382 20.7178ZM297.607 15.7364C297.271 16.2295 295.637 17.5374 295.301 17.4731C294.412 17.3087 293.56 16.1438 293.653 15.2218C293.768 14.1212 294.699 12.7633 296.11 13.0849C297.5 13.3993 298.016 15.136 297.607 15.7364ZM298.173 17.7804C297.872 17.566 300.365 14.7858 300.544 14.8001C300.723 14.8144 302.35 15.6292 302.966 16.0366C303.675 16.5011 303.682 17.8376 302.779 18.3808C302.299 18.6666 301.304 18.345 300.251 18.1235C299.319 17.9305 298.295 17.859 298.173 17.7804Z" fill="white"/>
<path d="M333.611 16.2081C334.636 15.6149 336.484 14.9145 337.773 13.9997C339.063 13.0849 340.066 10.7049 339.593 11.1409C336.613 13.9139 331.562 16.9228 331.562 17.1872C331.562 17.3945 332.587 16.7941 333.611 16.2009V16.2081Z" fill="white"/>
<path d="M128.635 23.6909C128.835 23.741 130.469 21.2753 131.249 18.6666C132.138 15.7293 130.662 12.7204 129.989 12.942C129.838 12.992 128.792 14.5286 128.835 14.8216C128.9 15.3219 130.684 16.4011 130.447 18.8668C130.29 20.4677 128.434 23.6337 128.635 23.6838V23.6909Z" fill="white"/>
<path d="M260.68 18.395C261.217 15.522 258.867 15.6863 259.569 14.3499C260.207 13.142 272.385 8.04628 273.71 7.49597C274.469 7.1815 275.737 4.47282 275.429 4.5157C272.807 4.85875 261.962 10.4691 259.598 12.5774C258.158 13.8639 257.542 14.843 257.657 16.2224C257.793 17.859 258.745 17.6089 259.104 19.1312C259.361 20.2389 255.665 22.3544 255.794 22.5688C255.966 22.8476 260.372 20.0603 260.687 18.395H260.68Z" fill="white"/>
<path d="M198.157 37.4416C197.734 37.1843 194.596 40.5863 194.74 43.4736C194.826 45.2746 196.545 46.0894 197.089 46.0465C197.369 46.0251 197.999 44.4384 197.806 44.174C197.705 44.0382 197.182 43.9596 196.402 43.3307C195.614 42.6875 195.879 41.1223 196.559 39.7429C197.247 38.3636 198.329 37.5488 198.149 37.4416H198.157Z" fill="white"/>
<path d="M99.1997 77.836C99.2857 77.836 99.1424 78.4506 98.7842 79.0152C98.4261 79.5799 97.9604 79.7014 97.7025 79.83C97.4447 79.9586 97.0578 80.1516 97.0292 80.1016C97.0005 80.0516 97.4375 79.7442 97.7025 79.5513C97.9676 79.3583 98.4905 78.908 98.8559 78.3863C99.2212 77.8646 99.1567 77.8289 99.2069 77.8289L99.1997 77.836Z" fill="white"/>
<path d="M100.41 75.2417C100.41 75.2417 100.382 75.3632 100.238 75.742C100.174 75.9063 100.095 76.0278 100.081 76.0922C100.059 76.2351 100.031 77.3214 100.002 77.9861C99.9733 78.6222 100.203 79.0939 100.475 79.1296C100.747 79.1653 101.048 78.6936 101.134 78.372C101.241 77.9504 101.205 77.7574 101.184 77.7574C101.155 77.7574 101.112 78.3363 100.711 78.1219C100.31 77.9075 100.331 77.0641 100.389 76.0707C100.432 75.3918 100.46 75.2345 100.403 75.2417H100.41Z" fill="white"/>
<path d="M100.532 81.5238C100.532 81.5238 101.069 80.9306 101.076 80.9306C101.084 80.9306 101.642 81.3523 101.671 81.3523C101.7 81.3523 102.173 80.852 102.187 80.852C102.201 80.852 102.731 81.2451 102.731 81.3594C102.731 81.4738 102.33 81.8883 102.223 81.8883C102.108 81.8883 101.7 81.4881 101.678 81.5024C101.678 81.5024 101.313 81.9884 101.162 81.9812C101.034 81.9812 100.525 81.5309 100.525 81.5309L100.532 81.5238Z" fill="white"/>
<path d="M102.051 76.0064C102.051 76.0064 102.588 75.4132 102.595 75.4132C102.602 75.4132 103.161 75.8348 103.19 75.8348C103.219 75.8348 103.691 75.3346 103.706 75.3346C103.72 75.3346 104.25 75.7276 104.25 75.842C104.25 75.9563 103.849 76.3709 103.741 76.3709C103.627 76.3709 103.219 75.9706 103.197 75.9849C103.197 75.9849 102.832 76.4709 102.681 76.4638C102.552 76.4638 102.044 76.0135 102.044 76.0135L102.051 76.0064Z" fill="white"/>
<path d="M103.125 74.3983C103.197 74.4412 103.505 74.6199 103.62 74.7128C103.698 74.77 103.763 74.8772 103.655 75.0272C103.548 75.1773 103.34 75.4418 103.261 75.4489C103.183 75.4561 102.617 75.0272 102.617 75.0272L103.125 74.3983Z" fill="white"/>
<path d="M102.502 78.9938C103.047 79.0581 102.946 79.7585 103.025 79.7728C103.118 79.78 103.175 79.3083 103.541 78.6793C103.72 78.3792 104.035 78.2076 104.293 78.2648C104.608 78.3363 105.002 77.8289 105.002 77.8289C105.389 77.8289 105.597 76.8569 105.518 76.8569C105.439 76.8569 105.353 77.2714 105.239 77.3143C105.124 77.3572 105.059 77.25 105.024 77.2642C104.988 77.2785 104.759 77.7431 104.494 77.7145C104.408 77.7074 104.4 77.6144 104.357 77.6002C104.307 77.5859 104.114 77.5287 103.792 77.9718C103.598 78.2434 103.483 78.5078 103.448 78.5078C103.383 78.5078 103.333 78.2005 103.004 78.1433C102.674 78.0861 102.373 78.2005 101.936 78.6508C101.478 79.1296 100.983 79.9158 100.296 80.4875C99.7728 80.9163 99.1782 81.3023 99.1782 81.338C99.1782 81.3737 99.5722 81.2094 100.052 80.9235C100.74 80.509 101.256 79.8729 101.521 79.5799C101.85 79.2082 102.122 78.9509 102.509 78.9938H102.502Z" fill="white"/>
</g>
<path d="M77.7133 37.9068C76.6825 37.621 76.6825 37.2885 75.5063 36.8743C74.3368 36.4601 73.3985 36.3318 69.2158 36.4601C65.0397 36.5826 64.1939 39.441 64.1939 38.6535C64.1939 37.866 64.8084 35.1768 64.2402 35.0484C63.6851 34.9259 63.401 36.6235 62.4561 36.2093C61.5178 35.7951 58.5641 38.9044 58.5179 38.3619C58.4716 37.8252 57.6324 37.2885 57.6324 37.2885C57.6324 37.2885 56.0796 38.6127 55.4717 40.7302C54.8638 42.842 55.9871 44.7437 55.2404 44.7028C54.4872 44.6678 54.54 42.387 54.1171 42.5095C53.6942 42.6378 53.5555 45.1229 54.0709 47.5613C54.5334 49.743 54.507 52.4847 54.4938 53.0506C54.4938 51.423 53.3969 49.5096 52.2868 47.8938C51.1635 46.237 50.5489 47.2287 50.5489 47.2287C50.5489 47.2287 49.5181 45.5312 46.7033 45.9454C45.5139 46.1204 44.7804 46.1204 44.3311 46.1204C44.8531 45.5604 45.4346 45.012 46.135 44.452C48.0578 42.9178 49.6569 43.787 49.8419 43.2503C50.0269 42.7136 48.2032 42.0486 46.4191 41.5936C44.635 41.1386 42.9897 42.8361 42.9897 42.8361C43.1351 42.2586 42.3818 40.9344 41.8201 41.0569C41.2585 41.1794 40.1352 41.7219 38.5361 43.1278C36.0714 45.3037 36.197 49.0488 36.197 49.0488C35.7675 46.2721 36.2432 43.542 37.1353 41.3019C38.0207 39.0619 40.5581 37.7843 40.0427 37.446C39.5273 37.1193 37.1353 38.4435 36.1507 40.2227C35.1662 42.0019 34.697 45.8112 34.697 45.8112C34.1816 42.0428 36.2498 36.291 36.2498 36.291C36.2498 36.291 42.7254 38.0293 45.8178 37.446C48.9168 36.8685 48.9168 33.5959 48.5865 31.98C48.2561 30.3642 46.1945 28.8708 45.4874 27.8383C44.787 26.8057 45.2562 26.7649 45.2562 26.7649C48.2164 30.7433 52.2075 34.1792 56.562 32.9367C60.9297 31.6884 62.0001 27.4299 60.7843 23.9473C59.813 21.1823 56.4232 21.0714 55.2008 21.2639C54.1502 21.4273 48.5336 23.049 48.4014 22.5415C48.342 22.3081 53.3572 22.2906 54.9497 19.8055C57.3417 16.0721 53.5621 13.7562 53.5621 13.7562C57.5003 14.2112 62.1521 13.5054 63.0838 12.5137C64.0221 11.5162 65.337 10.5245 65.2379 9.94113C65.1454 9.36362 63.553 9.11278 63.553 9.11278C66.3216 7.87025 67.2599 6.41771 68.1982 5.67686C69.1431 4.93017 70.3127 4.76684 70.0285 4.38766C68.7598 2.70762 61.6301 4.42849 61.6301 4.42849C62.0001 3.76348 61.5839 2.52678 61.5839 2.52678C61.5839 2.52678 57.0311 2.03093 53.7471 5.71186C50.5622 9.29362 51.7978 11.9012 51.8639 12.047C46.7495 7.99275 41.0074 6.53438 37.1419 8.86194C33.2763 11.1895 36.197 17.7288 36.1639 18.108C36.1441 18.318 33.1112 12.6304 31.1354 12.2979C30.62 10.1453 28.2677 7.99275 28.2677 7.99275C29.8205 5.92187 28.6972 3.60014 28.8293 2.15344C28.9747 0.7009 30.3293 0.537562 30.3293 0.327557C30.3293 0.117552 29.1135 -0.419128 28.1752 0.613398C27.2369 1.65176 25.0299 1.40092 24.1379 3.30847C23.2524 5.21601 24.6533 6.70939 24.6533 6.70939C21.1313 5.25685 17.9464 7.20523 17.9464 7.20523C17.9464 7.20523 17.3319 6.29521 15.3165 5.37935C13.3012 4.46933 10.625 5.70603 9.6405 6.82606C8.65595 7.94608 8.14054 8.56443 8.14054 8.56443C9.03919 9.74863 10.7109 10.052 11.6294 10.1278C10.07 10.0811 7.28815 10.0753 6.07232 12.5079C4.66488 15.3254 6.97097 17.8047 7.38726 17.5597C7.81016 17.3088 8.88722 17.7638 11.6559 17.6413C14.1668 17.5305 14.9333 14.5613 15.0258 14.1587C14.9795 14.5379 14.821 16.9821 15.0324 16.7721C15.5412 16.3055 18.1909 15.3488 19.4464 14.5321C20.6292 13.7621 20.9001 12.8754 20.9992 10.9328C21.0917 8.97861 18.6006 8.19692 18.6006 8.19692C18.6006 8.19692 20.9463 6.29521 25.2215 7.61941C29.4901 8.94361 29.728 12.5079 29.728 12.5079C25.77 11.487 23.9 15.6171 23.3515 17.6355C22.7965 19.6539 22.7965 22.2964 27.0585 23.9707C31.0958 25.5515 36.045 24.8865 36.5604 24.8165C36.1309 24.904 32.675 25.5807 30.6068 25.7149C28.3932 25.8549 26.662 28.5733 29.4967 32.19C32.338 35.8126 34.7829 35.7485 34.7829 35.7485C33.2565 38.9335 33.349 42.317 33.5539 44.0903C32.6354 40.6836 28.9747 39.5052 28.5452 39.5052C28.0695 39.5052 27.9968 40.2052 27.9968 40.2052C25.314 39.0852 24.9176 40.4094 23.5762 40.6894C22.2348 40.9694 22.7106 42.7078 22.7106 42.7078C22.7106 42.7078 24.4484 41.7336 27.1312 45.4904C27.3426 45.7879 27.5739 46.0679 27.8051 46.3304C26.1334 46.7271 24.3691 47.9288 24.3691 47.9288C24.3691 47.9288 24.5277 46.9546 23.8141 46.6104C23.107 46.2604 19.9486 49.603 19.9486 49.603C19.9486 49.603 20.8142 46.3304 21.1313 44.8662C21.4485 43.4078 21.4485 41.3136 21.2899 39.8494C21.1313 38.391 19.79 38.811 19.79 38.811C20.497 37.971 20.0278 35.8126 19.7173 34.7684C19.4067 33.7242 21.3692 31.4258 21.3692 31.4258C19.8759 30.5217 16.0037 33.4442 14.7417 35.0484C13.4796 36.6468 14.1932 39.7152 13.4796 39.7152C12.766 39.7152 11.7418 38.111 11.1867 38.1752C10.6383 38.2452 8.58326 39.9894 10.3211 45.0062C11.57 48.6054 13.506 50.5888 14.4972 51.423C12.3166 49.9996 9.09206 49.5913 7.80355 50.0988C6.38289 50.653 6.77935 51.493 6.77935 51.493C2.75524 50.653 0.938119 54.2056 0.231092 55.3256C-0.475935 56.4398 0.620948 56.644 1.0967 56.2998C1.57246 55.9556 2.83454 56.0956 4.01732 56.4398C5.2001 56.784 7.32779 56.784 7.32779 56.784C7.32779 56.784 6.46218 57.6882 6.69345 57.9682C6.93133 58.2482 10.407 59.0124 12.5347 59.2224C14.6624 59.4324 18.2173 59.1582 18.2173 59.1582L17.8275 59.9924C17.5896 59.6482 14.3584 59.9282 12.0655 60.0682C9.77926 60.2082 9.07223 61.5266 8.51718 62.1566C7.96874 62.7866 7.88284 64.2508 7.88284 64.2508C5.91374 65.015 5.66925 67.7334 5.82784 68.2234C5.98642 68.7135 7.96213 68.2993 8.74845 68.2993C9.53477 68.2993 12.6206 67.1151 12.8519 67.1792C13.0831 67.2551 12.7792 68.0193 12.7792 68.2234C12.7792 68.4276 13.5655 68.2993 14.8276 67.9434C16.0962 67.5993 17.6689 67.1792 17.6689 67.1792C17.6689 67.1792 16.6447 68.9935 17.0345 69.5535C17.4244 70.1135 17.4244 70.4577 17.583 71.4319C17.7416 72.4119 18.3759 73.8702 18.6931 73.9403C19.0103 74.0044 19.8759 73.2402 21.3692 72.056C22.8692 70.8777 24.5277 69.3376 24.5277 69.3376C24.9969 72.126 28.4659 75.5386 28.4659 75.5386C28.4659 75.5386 26.5695 75.1945 25.5453 75.6786C24.5277 76.1628 24.6797 78.047 26.3382 77.6328C27.9968 77.2128 26.6554 75.9586 26.6554 75.9586C30.3623 75.9586 31.5451 78.117 33.8314 80.0712C35.8864 81.8154 37.6771 85.788 37.5251 89.7956C37.1881 89.3115 36.8313 88.8098 36.4348 88.2964C32.946 83.7113 27.521 80.2812 24.052 79.5871C20.5829 78.887 19.0036 77.4228 17.8936 76.1045C16.7901 74.7803 17.1072 72.0619 17.1072 72.0619C13.8694 71.2277 13.6382 74.5003 13.6382 74.5003C11.7418 75.0603 13.1624 77.4987 15.1315 77.7787C17.1072 78.0587 20.5763 79.097 20.5763 79.097C16.3143 78.6129 12.6867 81.1913 12.6867 81.1913C12.0523 80.4971 8.50397 79.3771 5.66264 80.2871C2.82793 81.1913 2.51076 83.2855 2.82793 83.7055C3.1451 84.1197 2.82793 83.7055 5.58996 84.2597C5.95339 84.3355 6.33663 84.3763 6.70667 84.3822C8.14715 84.423 9.54799 84.0497 10.4466 83.7405C9.29029 84.2597 7.51942 84.8722 5.99303 84.598C4.20894 85.3214 2.49754 86.5756 1.92928 88.9031C1.0042 92.6657 2.85436 94.4274 4.7706 94.5499C6.5679 94.6724 10.1691 93.6807 11.4114 90.0523C10.6581 89.3406 8.92686 86.8731 11.2726 83.6355C9.34976 87.0014 10.9488 89.0898 11.7153 89.819C11.9136 90.0115 12.0589 90.1107 12.0589 90.1107C12.0589 90.1107 14.5897 89.0665 15.6139 86.2722C16.6381 83.4897 13.9553 82.2996 13.9553 82.2996C13.9553 82.2996 15.6932 79.4471 23.2656 80.2112C27.8977 80.6779 30.9174 84.1838 30.9174 84.1838C30.9174 84.1838 27.0519 82.2996 24.2171 84.1838C22.5784 85.2689 21.6864 87.0364 22.0036 89.0606C22.3207 91.079 24.0586 91.7732 24.3757 91.639C24.6863 91.499 23.3515 90.1748 24.0586 89.2648C24.7656 88.3606 27.2897 88.3606 29.2655 88.3606C31.2412 88.3606 33.838 87.1064 33.838 87.1064C35.4371 88.3664 36.5406 89.7607 37.3864 91.2657C36.6859 95.705 37.0758 99.5784 37.0758 99.5784C36.4414 98.8784 32.4173 96.58 32.4173 96.58C31.3138 93.7216 25.9484 91.9832 22.552 92.0474C19.1556 92.1232 20.1071 93.8616 20.1071 93.8616C20.1071 93.8616 18.9244 93.3074 16.7108 93.7974C14.5038 94.2816 15.0588 96.3 15.0588 96.3C11.3453 96.72 10.3211 101.801 10.7176 101.877C11.1074 101.941 12.7726 100.897 14.028 100.833C15.2901 100.757 17.4178 100.068 17.4178 100.068L17.5764 100.833C17.5764 100.833 22.0762 100.413 25.3933 99.3684C28.7038 98.3242 30.6002 97.07 30.6002 97.07C34.9481 97.6825 37.6176 102.419 37.6969 102.565C37.5582 102.518 35.2917 101.719 33.99 101.177C32.6552 100.617 30.283 100.203 28.3932 100.343C26.4968 100.483 25.1554 101.521 24.2105 102.781C23.259 104.035 22.9419 103.819 22.0762 104.455C21.2106 105.079 20.9728 105.914 20.4772 106.631C19.8098 107.599 19.5785 108.62 19.4926 110.236C19.3935 111.852 19.7239 113.427 20.0477 113.345C20.3781 113.258 20.6093 112.476 21.2635 112.062C21.9243 111.648 25.3471 110.575 27.0849 109.618C28.8227 108.661 31.6839 106.264 32.7609 105.225C33.8446 104.193 35.2454 103.108 36.3291 103.073C37.4128 103.032 38.1132 103.738 38.1132 103.738C34.9745 105.021 34.175 108.294 34.2212 109.075C34.2609 109.863 35.2058 109.489 35.2058 109.489C35.2058 109.489 35.6287 110.4 35.5758 112.517C35.5296 114.629 39.144 117.406 39.7519 116.951C40.3004 116.536 38.7674 115.125 41.8664 112.844C43.9082 111.345 44.7738 109.408 44.7275 107.5C44.6879 105.599 42.4809 103.65 42.4809 103.65C44.3046 103.814 46.472 107.71 49.2274 108.539C51.996 109.367 52.3727 107.751 52.5577 108.043C52.7427 108.334 55.4651 108.999 57.9496 110.114C60.4407 111.234 60.3945 112.307 60.6257 112.103C60.857 111.899 60.672 108.749 60.5266 107.127C60.3879 105.517 57.9033 103.195 57.9033 103.195L59.6412 103.154C59.6412 103.154 58.7425 101.958 57.1963 101.293C55.6567 100.628 53.2053 100.092 50.397 100.383C47.5821 100.669 43.1747 101.626 43.1747 101.626C43.1747 101.626 42.9435 101.13 43.2144 100.22C43.4985 99.3101 46.1284 96.7375 46.1284 96.7375C46.1284 96.7375 46.5975 97.4025 47.8133 98.4409C49.0292 99.4734 51.6656 99.4326 53.9585 98.6042C56.258 97.7759 57.6192 98.1084 57.8108 97.8984C57.9959 97.6942 57.9496 97.2333 57.1567 96.5742C56.3571 95.9091 53.5885 93.7566 51.5203 94.1708C49.4521 94.5849 47.2979 95.1625 47.2979 95.1625C47.2979 95.1625 50.582 91.8899 53.8198 90.484C57.0576 89.0723 59.8262 90.1048 59.8262 90.1048C58.6963 92.059 60.5795 94.5383 61.7028 95.6991C62.8327 96.86 66.4009 96.6092 66.4009 96.6092C66.4009 96.6092 62.8327 98.7209 62.5023 100.296C62.1785 101.871 63.3019 102.244 64.0551 102.413C64.8084 102.577 65.1851 102.868 65.9383 103.195C66.6916 103.528 68.5616 103.108 69.077 102.74C69.5924 102.367 69.6849 102.74 70.8611 101.498C71.9778 100.313 70.4977 98.4467 70.3589 98.2775C70.5836 98.4 73.4183 99.9692 75.1297 99.0126C76.9138 98.0209 76.068 96.405 76.068 96.405C77.4226 94.7891 75.8367 93.5057 74.7531 93.2141C73.709 92.9341 70.0087 94.7191 69.784 94.8241C69.8369 94.7016 70.4779 93.4066 70.5307 92.3449C70.577 91.2249 69.1761 89.1598 68.6541 88.7048C68.1321 88.2498 66.8238 86.7156 65.0397 86.8789C63.2556 87.0422 60.6323 88.7456 60.6323 88.7456L59.7865 88.2906C58.9474 87.8356 55.6105 88.454 55.6105 88.454C55.6105 88.454 56.1721 88.1214 56.965 87.4973C57.7646 86.8789 58.0487 85.9222 57.91 85.1814C57.7646 84.4347 56.1721 83.233 55.7955 83.3555C55.4254 83.4838 55.6964 83.6472 55.6964 84.5572C55.6964 85.4672 54.203 86.2139 53.2581 87.2873C52.3198 88.3606 52.6502 89.5681 52.6502 89.5681C52.6502 89.5681 49.6503 91.1432 48.1966 92.4674C46.7825 93.7507 44.1857 97.3325 44.0205 97.5483C44.0734 97.3617 44.7209 95.3025 44.8597 94.9116C44.9985 94.4974 45.2826 92.9224 45.3288 91.884C45.3751 90.8515 47.0138 85.4264 47.9125 85.8814C48.7979 86.3364 52.6502 84.7964 53.681 84.0147C54.7052 83.233 56.5884 82.113 57.8571 81.7338C59.1258 81.3604 60.672 82.1888 60.8107 81.2788C60.9495 80.3746 58.7425 79.3304 57.8571 78.8404C56.9584 78.3445 55.0885 78.1345 53.1656 77.8428C51.2361 77.5512 49.8816 79.3304 49.8816 79.3304C49.8816 79.3304 50.6811 76.8512 50.9124 75.8536C51.1436 74.8619 52.6965 70.4285 52.6965 70.4285C52.6965 70.4285 54.4739 70.5918 56.0201 70.6327C57.5664 70.6735 59.3504 69.8043 59.6808 69.5126C60.0046 69.221 59.5817 67.9784 59.5817 67.9784C60.52 68.2643 62.02 67.6868 63.3812 67.1501C64.7357 66.6076 65.4428 67.1092 65.5881 66.8584C65.7269 66.6076 65.8723 64.9567 62.7204 63.5858C59.5817 62.215 56.6281 64.1633 56.9981 63.2942C57.3747 62.425 61.2204 62.1333 63.3349 62.0516C65.4428 61.9641 65.1652 60.5991 65.304 60.2724C65.4428 59.9399 66.9031 59.8932 68.2114 59.7299C69.5263 59.5666 71.5946 60.1849 71.9646 59.9807C72.3412 59.7766 71.9183 59.3624 71.4492 58.6099C70.98 57.869 69.0572 56.4981 68.4493 55.9206C67.8414 55.3373 67.0947 54.2173 66.8106 53.5989C66.5264 52.9806 64.0882 53.3947 64.0882 53.2256C64.0882 53.0564 64.7423 52.9339 66.0573 52.4789C67.3722 52.0239 68.3568 51.0322 68.3568 50.7405C68.3568 50.4488 67.9801 50.863 66.6718 49.9588C65.3569 49.0488 62.6741 49.8713 62.7732 49.5796C62.8724 49.2938 64.9802 48.798 66.2423 48.3838C67.511 47.9696 69.2951 46.9312 70.5109 46.4762C71.7267 46.0212 70.8875 45.8112 70.8875 45.4437C70.8875 45.0762 71.7267 44.3703 72.2421 43.2503C72.7575 42.1303 75.764 42.2178 74.7795 42.0078C73.7949 41.8036 73.6496 41.3836 73.1408 41.2611C72.6254 41.1386 70.9272 41.9669 70.8413 41.1736C70.7422 40.3919 73.9337 39.0619 75.0636 38.7352C76.1869 38.4027 78.8631 38.7352 79.0018 38.566C79.1472 38.4027 78.7177 38.1927 77.6869 37.901L77.7133 37.9068ZM38.5493 19.7414C40.3664 18.9714 43.373 20.4181 44.2518 21.8531C45.1108 23.259 45.4478 25.0148 43.1879 25.954C40.9347 26.8932 38.4634 24.9157 37.6837 23.7898C36.752 22.4423 36.752 20.5056 38.5427 19.7472L38.5493 19.7414ZM27.6003 49.8305C27.5078 49.2588 28.3205 48.2438 29.0276 47.4971C31.5914 49.533 34.545 49.9705 34.545 49.9705C34.545 49.9705 34.9547 51.9539 35.5626 54.7131C35.219 54.5031 34.6574 54.1823 33.8314 53.8031C32.338 53.1031 31.5451 54.0072 30.6002 54.6373C29.6487 55.2614 29.8073 54.5731 29.021 54.0131C28.228 53.4531 25.7832 55.5473 25.6246 55.3373C25.466 55.1273 27.9109 53.3189 28.4593 51.9947C29.0144 50.6705 27.7523 50.8105 27.5937 49.8363L27.6003 49.8305ZM39.6726 102.419C39.3555 102.559 38.4898 101.101 38.0934 99.4967C37.7762 98.1959 37.9282 95.4483 38.3313 93.1966C38.6154 93.8382 38.8665 94.5033 39.1176 95.18C40.2211 98.1725 39.9832 102.279 39.666 102.419H39.6726ZM42.362 89.6031C42.2166 93.8966 41.232 98.9892 41.047 99.9109C41.1263 99.2342 41.3047 96.2416 38.6749 91.639C39.2629 89.3231 38.7211 87.2814 38.4105 85.9864C38.0934 84.6622 36.9106 82.0838 36.752 80.8296C36.5934 79.5754 36.3622 77.067 37.0692 74.7686C37.7762 72.4702 39.6726 73.5844 39.9105 73.1702C40.1418 72.7502 38.252 71.496 36.752 70.936C35.2587 70.376 33.6001 72.1202 33.6001 72.1202L32.8072 70.656C32.8072 70.656 31.3865 73.8586 32.338 74.9728C33.283 76.0928 32.9658 77.8312 32.9658 77.8312C32.9658 77.8312 30.2896 75.3928 27.6862 72.6744C25.0828 69.9618 25.2413 67.8734 25.2413 67.8734C27.9175 70.236 30.7654 69.4718 33.2103 68.9876C35.6551 68.5034 36.6 69.4076 36.9965 69.1276C37.3863 68.8476 36.7586 68.2234 35.5692 67.4534C34.3931 66.6892 33.4415 64.3908 32.5759 63.5567C31.7103 62.7166 27.369 62.7925 27.369 62.7925C27.369 62.7925 30.2896 61.6724 31.7103 60.5582C33.131 59.444 31.7896 58.464 32.0275 58.2599C32.2191 58.0907 34.8027 55.9556 35.6749 55.2264C36.7586 60.0507 38.3907 66.9051 39.5999 70.0318C41.569 75.1128 42.5206 84.8664 42.362 89.6031ZM50.3177 72.9077C49.9476 73.9928 48.0644 80.3279 47.5953 81.2729C47.1261 82.2296 46.5645 82.9763 46.472 84.1372C46.3729 85.2922 43.9809 90.9682 43.9809 90.9682C43.9809 90.9682 43.8884 88.1098 44.08 85.3389C44.265 82.568 42.8113 77.9245 42.7254 76.1453C42.6263 74.3661 43.0492 74.0744 43.8487 73.2052C44.6482 72.336 44.6482 72.8786 44.4632 73.1236C44.2716 73.3686 44.5029 73.8236 45.3024 73.3686C46.1019 72.9136 46.2011 71.7119 45.0183 71.4202C43.8487 71.1343 42.0646 73.9053 42.0646 73.9053C42.1637 71.6244 39.9105 67.6109 39.296 63.1775C38.6881 58.744 36.719 51.913 36.719 51.913C38.0273 52.6539 40.0427 51.2947 41.6417 49.3405C42.4082 48.3954 43.0426 47.5846 43.7033 46.8204C44.1196 47.4621 45.7319 48.2554 46.0491 49.7955C46.4257 51.5747 45.0183 53.1089 46.8024 54.5206C48.4741 55.8448 48.9895 57.0932 49.049 57.2448C46.9345 54.9756 43.8421 54.7714 41.7805 55.7631C39.7189 56.7607 38.7343 57.4257 38.7343 57.4257C38.774 58.6682 42.7254 60.2841 42.8113 60.9899C42.9104 61.6899 42.7188 62.8916 45.6262 63.1425C48.5336 63.3933 49.9476 64.385 49.9476 64.385C47.8332 63.265 44.8795 63.3117 43.3796 64.1342C41.8796 64.9684 40.9413 65.3825 40.8951 65.7967C40.8488 66.2109 44.1328 67.6226 44.6945 68.2759C45.2495 68.941 46.1482 69.4368 47.3178 70.0201C48.4873 70.5977 50.8859 71.0935 50.8859 71.0935C50.8859 71.0935 50.7009 71.8344 50.3243 72.9136L50.3177 72.9077Z" fill="#A4874D"/>
<path d="M472.743 37.9068C471.712 37.621 471.712 37.2885 470.536 36.8743C469.366 36.4601 468.428 36.3318 464.245 36.4601C460.069 36.5826 459.223 39.441 459.223 38.6535C459.223 37.866 459.838 35.1768 459.269 35.0484C458.714 34.9259 458.43 36.6235 457.485 36.2093C456.547 35.7951 453.593 38.9044 453.547 38.3619C453.501 37.8252 452.662 37.2885 452.662 37.2885C452.662 37.2885 451.109 38.6127 450.501 40.7302C449.893 42.842 451.016 44.7437 450.27 44.7028C449.516 44.6678 449.569 42.387 449.146 42.5095C448.724 42.6378 448.585 45.1229 449.1 47.5613C449.563 49.743 449.536 52.4847 449.523 53.0506C449.523 51.423 448.426 49.5096 447.316 47.8938C446.193 46.237 445.578 47.2287 445.578 47.2287C445.578 47.2287 444.547 45.5312 441.733 45.9454C440.543 46.1204 439.81 46.1204 439.36 46.1204C439.882 45.5604 440.464 45.012 441.164 44.452C443.087 42.9178 444.686 43.787 444.871 43.2503C445.056 42.7136 443.233 42.0486 441.448 41.5936C439.664 41.1386 438.019 42.8361 438.019 42.8361C438.164 42.2586 437.411 40.9344 436.849 41.0569C436.288 41.1794 435.164 41.7219 433.565 43.1278C431.101 45.3037 431.226 49.0488 431.226 49.0488C430.797 46.2721 431.273 43.542 432.165 41.3019C433.05 39.0619 435.587 37.7843 435.072 37.446C434.557 37.1193 432.165 38.4435 431.18 40.2227C430.195 42.0019 429.726 45.8112 429.726 45.8112C429.211 42.0428 431.279 36.291 431.279 36.291C431.279 36.291 437.755 38.0293 440.847 37.446C443.946 36.8685 443.946 33.5959 443.616 31.98C443.285 30.3642 441.224 28.8708 440.517 27.8383C439.816 26.8057 440.285 26.7649 440.285 26.7649C443.246 30.7433 447.237 34.1792 451.591 32.9367C455.959 31.6884 457.029 27.4299 455.814 23.9473C454.842 21.1823 451.453 21.0714 450.23 21.2639C449.179 21.4273 443.563 23.049 443.431 22.5415C443.371 22.3081 448.387 22.2906 449.979 19.8055C452.371 16.0721 448.591 13.7562 448.591 13.7562C452.53 14.2112 457.181 13.5054 458.113 12.5137C459.051 11.5162 460.366 10.5245 460.267 9.94113C460.175 9.36362 458.582 9.11278 458.582 9.11278C461.351 7.87025 462.289 6.41771 463.227 5.67686C464.172 4.93017 465.342 4.76684 465.058 4.38766C463.789 2.70762 456.659 4.42849 456.659 4.42849C457.029 3.76348 456.613 2.52678 456.613 2.52678C456.613 2.52678 452.06 2.03093 448.776 5.71186C445.591 9.29362 446.827 11.9012 446.893 12.047C441.779 7.99275 436.037 6.53438 432.171 8.86194C428.306 11.1895 431.226 17.7288 431.193 18.108C431.173 18.318 428.14 12.6304 426.165 12.2979C425.649 10.1453 423.297 7.99275 423.297 7.99275C424.85 5.92187 423.726 3.60014 423.859 2.15344C424.004 0.7009 425.359 0.537562 425.359 0.327557C425.359 0.117552 424.143 -0.419128 423.204 0.613398C422.266 1.65176 420.059 1.40092 419.167 3.30847C418.282 5.21601 419.683 6.70939 419.683 6.70939C416.161 5.25685 412.976 7.20523 412.976 7.20523C412.976 7.20523 412.361 6.29521 410.346 5.37935C408.33 4.46933 405.654 5.70603 404.67 6.82606C403.685 7.94608 403.17 8.56443 403.17 8.56443C404.068 9.74863 405.74 10.052 406.659 10.1278C405.099 10.0811 402.317 10.0753 401.102 12.5079C399.694 15.3254 402 17.8047 402.417 17.5597C402.839 17.3088 403.917 17.7638 406.685 17.6413C409.196 17.5305 409.963 14.5613 410.055 14.1587C410.009 14.5379 409.85 16.9821 410.062 16.7721C410.57 16.3055 413.22 15.3488 414.476 14.5321C415.658 13.7621 415.929 12.8754 416.028 10.9328C416.121 8.97861 413.63 8.19692 413.63 8.19692C413.63 8.19692 415.976 6.29521 420.251 7.61941C424.519 8.94361 424.757 12.5079 424.757 12.5079C420.799 11.487 418.929 15.6171 418.381 17.6355C417.826 19.6539 417.826 22.2964 422.088 23.9707C426.125 25.5515 431.074 24.8865 431.59 24.8165C431.16 24.904 427.704 25.5807 425.636 25.7149C423.423 25.8549 421.691 28.5733 424.526 32.19C427.367 35.8126 429.812 35.7485 429.812 35.7485C428.286 38.9335 428.378 42.317 428.583 44.0903C427.665 40.6836 424.004 39.5052 423.575 39.5052C423.099 39.5052 423.026 40.2052 423.026 40.2052C420.343 39.0852 419.947 40.4094 418.605 40.6894C417.264 40.9694 417.74 42.7078 417.74 42.7078C417.74 42.7078 419.478 41.7336 422.16 45.4904C422.372 45.7879 422.603 46.0679 422.834 46.3304C421.163 46.7271 419.398 47.9288 419.398 47.9288C419.398 47.9288 419.557 46.9546 418.843 46.6104C418.136 46.2604 414.978 49.603 414.978 49.603C414.978 49.603 415.843 46.3304 416.161 44.8662C416.478 43.4078 416.478 41.3136 416.319 39.8494C416.161 38.391 414.819 38.811 414.819 38.811C415.526 37.971 415.057 35.8126 414.747 34.7684C414.436 33.7242 416.399 31.4258 416.399 31.4258C414.905 30.5217 411.033 33.4442 409.771 35.0484C408.509 36.6468 409.223 39.7152 408.509 39.7152C407.795 39.7152 406.771 38.111 406.216 38.1752C405.668 38.2452 403.613 39.9894 405.35 45.0062C406.599 48.6054 408.535 50.5888 409.526 51.423C407.346 49.9996 404.121 49.5913 402.833 50.0988C401.412 50.653 401.809 51.493 401.809 51.493C397.785 50.653 395.967 54.2056 395.26 55.3256C394.553 56.4398 395.65 56.644 396.126 56.2998C396.602 55.9556 397.864 56.0956 399.047 56.4398C400.229 56.784 402.357 56.784 402.357 56.784C402.357 56.784 401.491 57.6882 401.723 57.9682C401.961 58.2482 405.436 59.0124 407.564 59.2224C409.692 59.4324 413.247 59.1582 413.247 59.1582L412.857 59.9924C412.619 59.6482 409.388 59.9282 407.095 60.0682C404.809 60.2082 404.102 61.5266 403.546 62.1566C402.998 62.7866 402.912 64.2508 402.912 64.2508C400.943 65.015 400.699 67.7334 400.857 68.2234C401.016 68.7135 402.991 68.2993 403.778 68.2993C404.564 68.2993 407.65 67.1151 407.881 67.1792C408.112 67.2551 407.808 68.0193 407.808 68.2234C407.808 68.4276 408.595 68.2993 409.857 67.9434C411.126 67.5993 412.698 67.1792 412.698 67.1792C412.698 67.1792 411.674 68.9935 412.064 69.5535C412.454 70.1135 412.454 70.4577 412.612 71.4319C412.771 72.4119 413.405 73.8702 413.722 73.9403C414.04 74.0044 414.905 73.2402 416.399 72.056C417.898 70.8777 419.557 69.3376 419.557 69.3376C420.026 72.126 423.495 75.5386 423.495 75.5386C423.495 75.5386 421.599 75.1945 420.575 75.6786C419.557 76.1628 419.709 78.047 421.368 77.6328C423.026 77.2128 421.685 75.9586 421.685 75.9586C425.392 75.9586 426.574 78.117 428.861 80.0712C430.916 81.8154 432.706 85.788 432.554 89.7956C432.217 89.3115 431.861 88.8098 431.464 88.2964C427.975 83.7113 422.55 80.2812 419.081 79.5871C415.612 78.887 414.033 77.4228 412.923 76.1045C411.819 74.7803 412.137 72.0619 412.137 72.0619C408.899 71.2277 408.667 74.5003 408.667 74.5003C406.771 75.0603 408.192 77.4987 410.161 77.7787C412.137 78.0587 415.606 79.097 415.606 79.097C411.344 78.6129 407.716 81.1913 407.716 81.1913C407.082 80.4971 403.533 79.3771 400.692 80.2871C397.857 81.1913 397.54 83.2855 397.857 83.7055C398.174 84.1197 397.857 83.7055 400.619 84.2597C400.983 84.3355 401.366 84.3763 401.736 84.3822C403.176 84.423 404.577 84.0497 405.476 83.7405C404.32 84.2597 402.549 84.8722 401.022 84.598C399.238 85.3214 397.527 86.5756 396.959 88.9031C396.033 92.6657 397.884 94.4274 399.8 94.5499C401.597 94.6724 405.198 93.6807 406.441 90.0523C405.687 89.3406 403.956 86.8731 406.302 83.6355C404.379 87.0014 405.978 89.0898 406.745 89.819C406.943 90.0115 407.088 90.1107 407.088 90.1107C407.088 90.1107 409.619 89.0665 410.643 86.2722C411.667 83.4897 408.985 82.2996 408.985 82.2996C408.985 82.2996 410.722 79.4471 418.295 80.2112C422.927 80.6779 425.947 84.1838 425.947 84.1838C425.947 84.1838 422.081 82.2996 419.246 84.1838C417.608 85.2689 416.716 87.0364 417.033 89.0606C417.35 91.079 419.088 91.7732 419.405 91.639C419.716 91.499 418.381 90.1748 419.088 89.2648C419.795 88.3606 422.319 88.3606 424.295 88.3606C426.27 88.3606 428.867 87.1064 428.867 87.1064C430.466 88.3664 431.57 89.7607 432.416 91.2657C431.715 95.705 432.105 99.5784 432.105 99.5784C431.471 98.8784 427.447 96.58 427.447 96.58C426.343 93.7216 420.978 91.9832 417.581 92.0474C414.185 92.1232 415.136 93.8616 415.136 93.8616C415.136 93.8616 413.954 93.3074 411.74 93.7974C409.533 94.2816 410.088 96.3 410.088 96.3C406.375 96.72 405.35 101.801 405.747 101.877C406.137 101.941 407.802 100.897 409.057 100.833C410.319 100.757 412.447 100.068 412.447 100.068L412.606 100.833C412.606 100.833 417.106 100.413 420.423 99.3684C423.733 98.3242 425.63 97.07 425.63 97.07C429.977 97.6825 432.647 102.419 432.726 102.565C432.587 102.518 430.321 101.719 429.019 101.177C427.685 100.617 425.312 100.203 423.423 100.343C421.526 100.483 420.185 101.521 419.24 102.781C418.288 104.035 417.971 103.819 417.106 104.455C416.24 105.079 416.002 105.914 415.506 106.631C414.839 107.599 414.608 108.62 414.522 110.236C414.423 111.852 414.753 113.427 415.077 113.345C415.407 113.258 415.639 112.476 416.293 112.062C416.954 111.648 420.376 110.575 422.114 109.618C423.852 108.661 426.713 106.264 427.79 105.225C428.874 104.193 430.275 103.108 431.358 103.073C432.442 103.032 433.142 103.738 433.142 103.738C430.004 105.021 429.204 108.294 429.251 109.075C429.29 109.863 430.235 109.489 430.235 109.489C430.235 109.489 430.658 110.4 430.605 112.517C430.559 114.629 434.173 117.406 434.781 116.951C435.33 116.536 433.797 115.125 436.896 112.844C438.937 111.345 439.803 109.408 439.757 107.5C439.717 105.599 437.51 103.65 437.51 103.65C439.334 103.814 441.501 107.71 444.257 108.539C447.025 109.367 447.402 107.751 447.587 108.043C447.772 108.334 450.494 108.999 452.979 110.114C455.47 111.234 455.424 112.307 455.655 112.103C455.886 111.899 455.701 108.749 455.556 107.127C455.417 105.517 452.933 103.195 452.933 103.195L454.67 103.154C454.67 103.154 453.772 101.958 452.226 101.293C450.686 100.628 448.235 100.092 445.426 100.383C442.611 100.669 438.204 101.626 438.204 101.626C438.204 101.626 437.973 101.13 438.244 100.22C438.528 99.3101 441.158 96.7375 441.158 96.7375C441.158 96.7375 441.627 97.4025 442.843 98.4409C444.058 99.4734 446.695 99.4326 448.988 98.6042C451.287 97.7759 452.649 98.1084 452.84 97.8984C453.025 97.6942 452.979 97.2333 452.186 96.5742C451.386 95.9091 448.618 93.7566 446.55 94.1708C444.481 94.5849 442.327 95.1625 442.327 95.1625C442.327 95.1625 445.611 91.8899 448.849 90.484C452.087 89.0723 454.855 90.1048 454.855 90.1048C453.726 92.059 455.609 94.5383 456.732 95.6991C457.862 96.86 461.43 96.6092 461.43 96.6092C461.43 96.6092 457.862 98.7209 457.532 100.296C457.208 101.871 458.331 102.244 459.084 102.413C459.838 102.577 460.214 102.868 460.968 103.195C461.721 103.528 463.591 103.108 464.106 102.74C464.622 102.367 464.714 102.74 465.89 101.498C467.007 100.313 465.527 98.4467 465.388 98.2775C465.613 98.4 468.448 99.9692 470.159 99.0126C471.943 98.0209 471.097 96.405 471.097 96.405C472.452 94.7891 470.866 93.5057 469.782 93.2141C468.738 92.9341 465.038 94.7191 464.813 94.8241C464.866 94.7016 465.507 93.4066 465.56 92.3449C465.606 91.2249 464.205 89.1598 463.683 88.7048C463.161 88.2498 461.853 86.7156 460.069 86.8789C458.285 87.0422 455.662 88.7456 455.662 88.7456L454.816 88.2906C453.977 87.8356 450.64 88.454 450.64 88.454C450.64 88.454 451.201 88.1214 451.994 87.4973C452.794 86.8789 453.078 85.9222 452.939 85.1814C452.794 84.4347 451.201 83.233 450.825 83.3555C450.455 83.4838 450.726 83.6472 450.726 84.5572C450.726 85.4672 449.232 86.2139 448.287 87.2873C447.349 88.3606 447.68 89.5681 447.68 89.5681C447.68 89.5681 444.68 91.1432 443.226 92.4674C441.812 93.7507 439.215 97.3325 439.05 97.5483C439.103 97.3617 439.75 95.3025 439.889 94.9116C440.028 94.4974 440.312 92.9224 440.358 91.884C440.404 90.8515 442.043 85.4264 442.942 85.8814C443.827 86.3364 447.68 84.7964 448.71 84.0147C449.735 83.233 451.618 82.113 452.886 81.7338C454.155 81.3604 455.701 82.1888 455.84 81.2788C455.979 80.3746 453.772 79.3304 452.886 78.8404C451.988 78.3445 450.118 78.1345 448.195 77.8428C446.265 77.5512 444.911 79.3304 444.911 79.3304C444.911 79.3304 445.71 76.8512 445.942 75.8536C446.173 74.8619 447.726 70.4285 447.726 70.4285C447.726 70.4285 449.503 70.5918 451.049 70.6327C452.596 70.6735 454.38 69.8043 454.71 69.5126C455.034 69.221 454.611 67.9784 454.611 67.9784C455.549 68.2643 457.049 67.6868 458.41 67.1501C459.765 66.6076 460.472 67.1092 460.617 66.8584C460.756 66.6076 460.902 64.9567 457.75 63.5858C454.611 62.215 451.657 64.1633 452.027 63.2942C452.404 62.425 456.25 62.1333 458.364 62.0516C460.472 61.9641 460.195 60.5991 460.333 60.2724C460.472 59.9399 461.932 59.8932 463.241 59.7299C464.556 59.5666 466.624 60.1849 466.994 59.9807C467.371 59.7766 466.948 59.3624 466.478 58.6099C466.009 57.869 464.086 56.4981 463.479 55.9206C462.871 55.3373 462.124 54.2173 461.84 53.5989C461.556 52.9806 459.117 53.3947 459.117 53.2256C459.117 53.0564 459.772 52.9339 461.087 52.4789C462.402 52.0239 463.386 51.0322 463.386 50.7405C463.386 50.4488 463.009 50.863 461.701 49.9588C460.386 49.0488 457.703 49.8713 457.803 49.5796C457.902 49.2938 460.01 48.798 461.272 48.3838C462.54 47.9696 464.324 46.9312 465.54 46.4762C466.756 46.0212 465.917 45.8112 465.917 45.4437C465.917 45.0762 466.756 44.3703 467.271 43.2503C467.787 42.1303 470.793 42.2178 469.809 42.0078C468.824 41.8036 468.679 41.3836 468.17 41.2611C467.655 41.1386 465.956 41.9669 465.871 41.1736C465.771 40.3919 468.963 39.0619 470.093 38.7352C471.216 38.4027 473.892 38.7352 474.031 38.566C474.176 38.4027 473.747 38.1927 472.716 37.901L472.743 37.9068ZM433.579 19.7414C435.396 18.9714 438.402 20.4181 439.281 21.8531C440.14 23.259 440.477 25.0148 438.217 25.954C435.964 26.8932 433.493 24.9157 432.713 23.7898C431.781 22.4423 431.781 20.5056 433.572 19.7472L433.579 19.7414ZM422.63 49.8305C422.537 49.2588 423.35 48.2438 424.057 47.4971C426.621 49.533 429.574 49.9705 429.574 49.9705C429.574 49.9705 429.984 51.9539 430.592 54.7131C430.248 54.5031 429.687 54.1823 428.861 53.8031C427.367 53.1031 426.574 54.0072 425.63 54.6373C424.678 55.2614 424.837 54.5731 424.05 54.0131C423.257 53.4531 420.812 55.5473 420.654 55.3373C420.495 55.1273 422.94 53.3189 423.489 51.9947C424.044 50.6705 422.782 50.8105 422.623 49.8363L422.63 49.8305ZM434.702 102.419C434.385 102.559 433.519 101.101 433.123 99.4967C432.806 98.1959 432.957 95.4483 433.361 93.1966C433.645 93.8382 433.896 94.5033 434.147 95.18C435.25 98.1725 435.012 102.279 434.695 102.419H434.702ZM437.391 89.6031C437.246 93.8966 436.261 98.9892 436.076 99.9109C436.156 99.2342 436.334 96.2416 433.704 91.639C434.292 89.3231 433.75 87.2814 433.44 85.9864C433.123 84.6622 431.94 82.0838 431.781 80.8296C431.623 79.5754 431.391 77.067 432.098 74.7686C432.806 72.4702 434.702 73.5844 434.94 73.1702C435.171 72.7502 433.281 71.496 431.781 70.936C430.288 70.376 428.629 72.1202 428.629 72.1202L427.836 70.656C427.836 70.656 426.416 73.8586 427.367 74.9728C428.312 76.0928 427.995 77.8312 427.995 77.8312C427.995 77.8312 425.319 75.3928 422.716 72.6744C420.112 69.9618 420.271 67.8734 420.271 67.8734C422.947 70.236 425.795 69.4718 428.24 68.9876C430.684 68.5034 431.629 69.4076 432.026 69.1276C432.416 68.8476 431.788 68.2234 430.599 67.4534C429.422 66.6892 428.471 64.3908 427.605 63.5567C426.74 62.7166 422.398 62.7925 422.398 62.7925C422.398 62.7925 425.319 61.6724 426.74 60.5582C428.16 59.444 426.819 58.464 427.057 58.2599C427.248 58.0907 429.832 55.9556 430.704 55.2264C431.788 60.0507 433.42 66.9051 434.629 70.0318C436.598 75.1128 437.55 84.8664 437.391 89.6031ZM445.347 72.9077C444.977 73.9928 443.094 80.3279 442.625 81.2729C442.155 82.2296 441.594 82.9763 441.501 84.1372C441.402 85.2922 439.01 90.9682 439.01 90.9682C439.01 90.9682 438.918 88.1098 439.109 85.3389C439.294 82.568 437.841 77.9245 437.755 76.1453C437.656 74.3661 438.078 74.0744 438.878 73.2052C439.678 72.336 439.678 72.8786 439.493 73.1236C439.301 73.3686 439.532 73.8236 440.332 73.3686C441.131 72.9136 441.23 71.7119 440.048 71.4202C438.878 71.1343 437.094 73.9053 437.094 73.9053C437.193 71.6244 434.94 67.6109 434.325 63.1775C433.717 58.744 431.748 51.913 431.748 51.913C433.057 52.6539 435.072 51.2947 436.671 49.3405C437.438 48.3954 438.072 47.5846 438.733 46.8204C439.149 47.4621 440.761 48.2554 441.078 49.7955C441.455 51.5747 440.048 53.1089 441.832 54.5206C443.503 55.8448 444.019 57.0932 444.078 57.2448C441.964 54.9756 438.871 54.7714 436.81 55.7631C434.748 56.7607 433.764 57.4257 433.764 57.4257C433.803 58.6682 437.755 60.2841 437.841 60.9899C437.94 61.6899 437.748 62.8916 440.655 63.1425C443.563 63.3933 444.977 64.385 444.977 64.385C442.862 63.265 439.909 63.3117 438.409 64.1342C436.909 64.9684 435.971 65.3825 435.924 65.7967C435.878 66.2109 439.162 67.6226 439.724 68.2759C440.279 68.941 441.177 69.4368 442.347 70.0201C443.517 70.5977 445.915 71.0935 445.915 71.0935C445.915 71.0935 445.73 71.8344 445.354 72.9136L445.347 72.9077Z" fill="#A4874D"/>
<defs>
<clipPath id="clip0_69_1296">
<rect width="280" height="113" fill="white" transform="translate(97.0293 2)"/>
</clipPath>
</defs>
</svg>
